<?xml version="1.0" encoding="utf-8" standalone="no"?>
<!DOCTYPE svg PUBLIC "-//W3C//DTD SVG 1.1//EN"
  "http://www.w3.org/Graphics/SVG/1.1/DTD/svg11.dtd">
<!-- Created with matplotlib (https://matplotlib.org/) -->
<svg height="345.6pt" version="1.1" viewBox="0 0 460.8 345.6" width="460.8pt" xmlns="http://www.w3.org/2000/svg" xmlns:xlink="http://www.w3.org/1999/xlink">
 <metadata>
  <rdf:RDF xmlns:cc="http://creativecommons.org/ns#" xmlns:dc="http://purl.org/dc/elements/1.1/" xmlns:rdf="http://www.w3.org/1999/02/22-rdf-syntax-ns#">
   <cc:Work>
    <dc:type rdf:resource="http://purl.org/dc/dcmitype/StillImage"/>
    <dc:date>2020-08-28T01:24:28.037749</dc:date>
    <dc:format>image/svg+xml</dc:format>
    <dc:creator>
     <cc:Agent>
      <dc:title>Matplotlib v3.3.1, https://matplotlib.org/</dc:title>
     </cc:Agent>
    </dc:creator>
   </cc:Work>
  </rdf:RDF>
 </metadata>
 <defs>
  <style type="text/css">*{stroke-linecap:butt;stroke-linejoin:round;}</style>
 </defs>
 <g id="figure_1">
  <g id="patch_1">
   <path d="M 0 345.6 
L 460.8 345.6 
L 460.8 0 
L 0 0 
z
" style="fill:#ffffff;"/>
  </g>
  <g id="axes_1">
   <g id="patch_2">
    <path d="M 57.6 307.584 
L 414.72 307.584 
L 414.72 41.472 
L 57.6 41.472 
z
" style="fill:#ffffff;"/>
   </g>
   <g id="matplotlib.axis_1">
    <g id="xtick_1">
     <g id="line2d_1">
      <defs>
       <path d="M 0 0 
L 0 3.5 
" id="mec477d0204" style="stroke:#000000;stroke-width:0.8;"/>
      </defs>
      <g>
       <use style="stroke:#000000;stroke-width:0.8;" x="57.6" xlink:href="#mec477d0204" y="307.584"/>
      </g>
     </g>
     <g id="text_1">
      <!-- 0.0 -->
      <g transform="translate(49.648438 322.182437)scale(0.1 -0.1)">
       <defs>
        <path d="M 31.78125 66.40625 
Q 24.171875 66.40625 20.328125 58.90625 
Q 16.5 51.421875 16.5 36.375 
Q 16.5 21.390625 20.328125 13.890625 
Q 24.171875 6.390625 31.78125 6.390625 
Q 39.453125 6.390625 43.28125 13.890625 
Q 47.125 21.390625 47.125 36.375 
Q 47.125 51.421875 43.28125 58.90625 
Q 39.453125 66.40625 31.78125 66.40625 
z
M 31.78125 74.21875 
Q 44.046875 74.21875 50.515625 64.515625 
Q 56.984375 54.828125 56.984375 36.375 
Q 56.984375 17.96875 50.515625 8.265625 
Q 44.046875 -1.421875 31.78125 -1.421875 
Q 19.53125 -1.421875 13.0625 8.265625 
Q 6.59375 17.96875 6.59375 36.375 
Q 6.59375 54.828125 13.0625 64.515625 
Q 19.53125 74.21875 31.78125 74.21875 
z
" id="DejaVuSans-48"/>
        <path d="M 10.6875 12.40625 
L 21 12.40625 
L 21 0 
L 10.6875 0 
z
" id="DejaVuSans-46"/>
       </defs>
       <use xlink:href="#DejaVuSans-48"/>
       <use x="63.623047" xlink:href="#DejaVuSans-46"/>
       <use x="95.410156" xlink:href="#DejaVuSans-48"/>
      </g>
     </g>
    </g>
    <g id="xtick_2">
     <g id="line2d_2">
      <g>
       <use style="stroke:#000000;stroke-width:0.8;" x="129.024" xlink:href="#mec477d0204" y="307.584"/>
      </g>
     </g>
     <g id="text_2">
      <!-- 0.2 -->
      <g transform="translate(121.072438 322.182437)scale(0.1 -0.1)">
       <defs>
        <path d="M 19.1875 8.296875 
L 53.609375 8.296875 
L 53.609375 0 
L 7.328125 0 
L 7.328125 8.296875 
Q 12.9375 14.109375 22.625 23.890625 
Q 32.328125 33.6875 34.8125 36.53125 
Q 39.546875 41.84375 41.421875 45.53125 
Q 43.3125 49.21875 43.3125 52.78125 
Q 43.3125 58.59375 39.234375 62.25 
Q 35.15625 65.921875 28.609375 65.921875 
Q 23.96875 65.921875 18.8125 64.3125 
Q 13.671875 62.703125 7.8125 59.421875 
L 7.8125 69.390625 
Q 13.765625 71.78125 18.9375 73 
Q 24.125 74.21875 28.421875 74.21875 
Q 39.75 74.21875 46.484375 68.546875 
Q 53.21875 62.890625 53.21875 53.421875 
Q 53.21875 48.921875 51.53125 44.890625 
Q 49.859375 40.875 45.40625 35.40625 
Q 44.1875 33.984375 37.640625 27.21875 
Q 31.109375 20.453125 19.1875 8.296875 
z
" id="DejaVuSans-50"/>
       </defs>
       <use xlink:href="#DejaVuSans-48"/>
       <use x="63.623047" xlink:href="#DejaVuSans-46"/>
       <use x="95.410156" xlink:href="#DejaVuSans-50"/>
      </g>
     </g>
    </g>
    <g id="xtick_3">
     <g id="line2d_3">
      <g>
       <use style="stroke:#000000;stroke-width:0.8;" x="200.448" xlink:href="#mec477d0204" y="307.584"/>
      </g>
     </g>
     <g id="text_3">
      <!-- 0.4 -->
      <g transform="translate(192.496438 322.182437)scale(0.1 -0.1)">
       <defs>
        <path d="M 37.796875 64.3125 
L 12.890625 25.390625 
L 37.796875 25.390625 
z
M 35.203125 72.90625 
L 47.609375 72.90625 
L 47.609375 25.390625 
L 58.015625 25.390625 
L 58.015625 17.1875 
L 47.609375 17.1875 
L 47.609375 0 
L 37.796875 0 
L 37.796875 17.1875 
L 4.890625 17.1875 
L 4.890625 26.703125 
z
" id="DejaVuSans-52"/>
       </defs>
       <use xlink:href="#DejaVuSans-48"/>
       <use x="63.623047" xlink:href="#DejaVuSans-46"/>
       <use x="95.410156" xlink:href="#DejaVuSans-52"/>
      </g>
     </g>
    </g>
    <g id="xtick_4">
     <g id="line2d_4">
      <g>
       <use style="stroke:#000000;stroke-width:0.8;" x="271.872" xlink:href="#mec477d0204" y="307.584"/>
      </g>
     </g>
     <g id="text_4">
      <!-- 0.6 -->
      <g transform="translate(263.920438 322.182437)scale(0.1 -0.1)">
       <defs>
        <path d="M 33.015625 40.375 
Q 26.375 40.375 22.484375 35.828125 
Q 18.609375 31.296875 18.609375 23.390625 
Q 18.609375 15.53125 22.484375 10.953125 
Q 26.375 6.390625 33.015625 6.390625 
Q 39.65625 6.390625 43.53125 10.953125 
Q 47.40625 15.53125 47.40625 23.390625 
Q 47.40625 31.296875 43.53125 35.828125 
Q 39.65625 40.375 33.015625 40.375 
z
M 52.59375 71.296875 
L 52.59375 62.3125 
Q 48.875 64.0625 45.09375 64.984375 
Q 41.3125 65.921875 37.59375 65.921875 
Q 27.828125 65.921875 22.671875 59.328125 
Q 17.53125 52.734375 16.796875 39.40625 
Q 19.671875 43.65625 24.015625 45.921875 
Q 28.375 48.1875 33.59375 48.1875 
Q 44.578125 48.1875 50.953125 41.515625 
Q 57.328125 34.859375 57.328125 23.390625 
Q 57.328125 12.15625 50.6875 5.359375 
Q 44.046875 -1.421875 33.015625 -1.421875 
Q 20.359375 -1.421875 13.671875 8.265625 
Q 6.984375 17.96875 6.984375 36.375 
Q 6.984375 53.65625 15.1875 63.9375 
Q 23.390625 74.21875 37.203125 74.21875 
Q 40.921875 74.21875 44.703125 73.484375 
Q 48.484375 72.75 52.59375 71.296875 
z
" id="DejaVuSans-54"/>
       </defs>
       <use xlink:href="#DejaVuSans-48"/>
       <use x="63.623047" xlink:href="#DejaVuSans-46"/>
       <use x="95.410156" xlink:href="#DejaVuSans-54"/>
      </g>
     </g>
    </g>
    <g id="xtick_5">
     <g id="line2d_5">
      <g>
       <use style="stroke:#000000;stroke-width:0.8;" x="343.296" xlink:href="#mec477d0204" y="307.584"/>
      </g>
     </g>
     <g id="text_5">
      <!-- 0.8 -->
      <g transform="translate(335.344438 322.182437)scale(0.1 -0.1)">
       <defs>
        <path d="M 31.78125 34.625 
Q 24.75 34.625 20.71875 30.859375 
Q 16.703125 27.09375 16.703125 20.515625 
Q 16.703125 13.921875 20.71875 10.15625 
Q 24.75 6.390625 31.78125 6.390625 
Q 38.8125 6.390625 42.859375 10.171875 
Q 46.921875 13.96875 46.921875 20.515625 
Q 46.921875 27.09375 42.890625 30.859375 
Q 38.875 34.625 31.78125 34.625 
z
M 21.921875 38.8125 
Q 15.578125 40.375 12.03125 44.71875 
Q 8.5 49.078125 8.5 55.328125 
Q 8.5 64.0625 14.71875 69.140625 
Q 20.953125 74.21875 31.78125 74.21875 
Q 42.671875 74.21875 48.875 69.140625 
Q 55.078125 64.0625 55.078125 55.328125 
Q 55.078125 49.078125 51.53125 44.71875 
Q 48 40.375 41.703125 38.8125 
Q 48.828125 37.15625 52.796875 32.3125 
Q 56.78125 27.484375 56.78125 20.515625 
Q 56.78125 9.90625 50.3125 4.234375 
Q 43.84375 -1.421875 31.78125 -1.421875 
Q 19.734375 -1.421875 13.25 4.234375 
Q 6.78125 9.90625 6.78125 20.515625 
Q 6.78125 27.484375 10.78125 32.3125 
Q 14.796875 37.15625 21.921875 38.8125 
z
M 18.3125 54.390625 
Q 18.3125 48.734375 21.84375 45.5625 
Q 25.390625 42.390625 31.78125 42.390625 
Q 38.140625 42.390625 41.71875 45.5625 
Q 45.3125 48.734375 45.3125 54.390625 
Q 45.3125 60.0625 41.71875 63.234375 
Q 38.140625 66.40625 31.78125 66.40625 
Q 25.390625 66.40625 21.84375 63.234375 
Q 18.3125 60.0625 18.3125 54.390625 
z
" id="DejaVuSans-56"/>
       </defs>
       <use xlink:href="#DejaVuSans-48"/>
       <use x="63.623047" xlink:href="#DejaVuSans-46"/>
       <use x="95.410156" xlink:href="#DejaVuSans-56"/>
      </g>
     </g>
    </g>
    <g id="xtick_6">
     <g id="line2d_6">
      <g>
       <use style="stroke:#000000;stroke-width:0.8;" x="414.72" xlink:href="#mec477d0204" y="307.584"/>
      </g>
     </g>
     <g id="text_6">
      <!-- 1.0 -->
      <g transform="translate(406.768438 322.182437)scale(0.1 -0.1)">
       <defs>
        <path d="M 12.40625 8.296875 
L 28.515625 8.296875 
L 28.515625 63.921875 
L 10.984375 60.40625 
L 10.984375 69.390625 
L 28.421875 72.90625 
L 38.28125 72.90625 
L 38.28125 8.296875 
L 54.390625 8.296875 
L 54.390625 0 
L 12.40625 0 
z
" id="DejaVuSans-49"/>
       </defs>
       <use xlink:href="#DejaVuSans-49"/>
       <use x="63.623047" xlink:href="#DejaVuSans-46"/>
       <use x="95.410156" xlink:href="#DejaVuSans-48"/>
      </g>
     </g>
    </g>
    <g id="text_7">
     <!-- False Positive Rate -->
     <g transform="translate(189.693594 335.860562)scale(0.1 -0.1)">
      <defs>
       <path d="M 9.8125 72.90625 
L 51.703125 72.90625 
L 51.703125 64.59375 
L 19.671875 64.59375 
L 19.671875 43.109375 
L 48.578125 43.109375 
L 48.578125 34.8125 
L 19.671875 34.8125 
L 19.671875 0 
L 9.8125 0 
z
" id="DejaVuSans-70"/>
       <path d="M 34.28125 27.484375 
Q 23.390625 27.484375 19.1875 25 
Q 14.984375 22.515625 14.984375 16.5 
Q 14.984375 11.71875 18.140625 8.90625 
Q 21.296875 6.109375 26.703125 6.109375 
Q 34.1875 6.109375 38.703125 11.40625 
Q 43.21875 16.703125 43.21875 25.484375 
L 43.21875 27.484375 
z
M 52.203125 31.203125 
L 52.203125 0 
L 43.21875 0 
L 43.21875 8.296875 
Q 40.140625 3.328125 35.546875 0.953125 
Q 30.953125 -1.421875 24.3125 -1.421875 
Q 15.921875 -1.421875 10.953125 3.296875 
Q 6 8.015625 6 15.921875 
Q 6 25.140625 12.171875 29.828125 
Q 18.359375 34.515625 30.609375 34.515625 
L 43.21875 34.515625 
L 43.21875 35.40625 
Q 43.21875 41.609375 39.140625 45 
Q 35.0625 48.390625 27.6875 48.390625 
Q 23 48.390625 18.546875 47.265625 
Q 14.109375 46.140625 10.015625 43.890625 
L 10.015625 52.203125 
Q 14.9375 54.109375 19.578125 55.046875 
Q 24.21875 56 28.609375 56 
Q 40.484375 56 46.34375 49.84375 
Q 52.203125 43.703125 52.203125 31.203125 
z
" id="DejaVuSans-97"/>
       <path d="M 9.421875 75.984375 
L 18.40625 75.984375 
L 18.40625 0 
L 9.421875 0 
z
" id="DejaVuSans-108"/>
       <path d="M 44.28125 53.078125 
L 44.28125 44.578125 
Q 40.484375 46.53125 36.375 47.5 
Q 32.28125 48.484375 27.875 48.484375 
Q 21.1875 48.484375 17.84375 46.4375 
Q 14.5 44.390625 14.5 40.28125 
Q 14.5 37.15625 16.890625 35.375 
Q 19.28125 33.59375 26.515625 31.984375 
L 29.59375 31.296875 
Q 39.15625 29.25 43.1875 25.515625 
Q 47.21875 21.78125 47.21875 15.09375 
Q 47.21875 7.46875 41.1875 3.015625 
Q 35.15625 -1.421875 24.609375 -1.421875 
Q 20.21875 -1.421875 15.453125 -0.5625 
Q 10.6875 0.296875 5.421875 2 
L 5.421875 11.28125 
Q 10.40625 8.6875 15.234375 7.390625 
Q 20.0625 6.109375 24.8125 6.109375 
Q 31.15625 6.109375 34.5625 8.28125 
Q 37.984375 10.453125 37.984375 14.40625 
Q 37.984375 18.0625 35.515625 20.015625 
Q 33.0625 21.96875 24.703125 23.78125 
L 21.578125 24.515625 
Q 13.234375 26.265625 9.515625 29.90625 
Q 5.8125 33.546875 5.8125 39.890625 
Q 5.8125 47.609375 11.28125 51.796875 
Q 16.75 56 26.8125 56 
Q 31.78125 56 36.171875 55.265625 
Q 40.578125 54.546875 44.28125 53.078125 
z
" id="DejaVuSans-115"/>
       <path d="M 56.203125 29.59375 
L 56.203125 25.203125 
L 14.890625 25.203125 
Q 15.484375 15.921875 20.484375 11.0625 
Q 25.484375 6.203125 34.421875 6.203125 
Q 39.59375 6.203125 44.453125 7.46875 
Q 49.3125 8.734375 54.109375 11.28125 
L 54.109375 2.78125 
Q 49.265625 0.734375 44.1875 -0.34375 
Q 39.109375 -1.421875 33.890625 -1.421875 
Q 20.796875 -1.421875 13.15625 6.1875 
Q 5.515625 13.8125 5.515625 26.8125 
Q 5.515625 40.234375 12.765625 48.109375 
Q 20.015625 56 32.328125 56 
Q 43.359375 56 49.78125 48.890625 
Q 56.203125 41.796875 56.203125 29.59375 
z
M 47.21875 32.234375 
Q 47.125 39.59375 43.09375 43.984375 
Q 39.0625 48.390625 32.421875 48.390625 
Q 24.90625 48.390625 20.390625 44.140625 
Q 15.875 39.890625 15.1875 32.171875 
z
" id="DejaVuSans-101"/>
       <path id="DejaVuSans-32"/>
       <path d="M 19.671875 64.796875 
L 19.671875 37.40625 
L 32.078125 37.40625 
Q 38.96875 37.40625 42.71875 40.96875 
Q 46.484375 44.53125 46.484375 51.125 
Q 46.484375 57.671875 42.71875 61.234375 
Q 38.96875 64.796875 32.078125 64.796875 
z
M 9.8125 72.90625 
L 32.078125 72.90625 
Q 44.34375 72.90625 50.609375 67.359375 
Q 56.890625 61.8125 56.890625 51.125 
Q 56.890625 40.328125 50.609375 34.8125 
Q 44.34375 29.296875 32.078125 29.296875 
L 19.671875 29.296875 
L 19.671875 0 
L 9.8125 0 
z
" id="DejaVuSans-80"/>
       <path d="M 30.609375 48.390625 
Q 23.390625 48.390625 19.1875 42.75 
Q 14.984375 37.109375 14.984375 27.296875 
Q 14.984375 17.484375 19.15625 11.84375 
Q 23.34375 6.203125 30.609375 6.203125 
Q 37.796875 6.203125 41.984375 11.859375 
Q 46.1875 17.53125 46.1875 27.296875 
Q 46.1875 37.015625 41.984375 42.703125 
Q 37.796875 48.390625 30.609375 48.390625 
z
M 30.609375 56 
Q 42.328125 56 49.015625 48.375 
Q 55.71875 40.765625 55.71875 27.296875 
Q 55.71875 13.875 49.015625 6.21875 
Q 42.328125 -1.421875 30.609375 -1.421875 
Q 18.84375 -1.421875 12.171875 6.21875 
Q 5.515625 13.875 5.515625 27.296875 
Q 5.515625 40.765625 12.171875 48.375 
Q 18.84375 56 30.609375 56 
z
" id="DejaVuSans-111"/>
       <path d="M 9.421875 54.6875 
L 18.40625 54.6875 
L 18.40625 0 
L 9.421875 0 
z
M 9.421875 75.984375 
L 18.40625 75.984375 
L 18.40625 64.59375 
L 9.421875 64.59375 
z
" id="DejaVuSans-105"/>
       <path d="M 18.3125 70.21875 
L 18.3125 54.6875 
L 36.8125 54.6875 
L 36.8125 47.703125 
L 18.3125 47.703125 
L 18.3125 18.015625 
Q 18.3125 11.328125 20.140625 9.421875 
Q 21.96875 7.515625 27.59375 7.515625 
L 36.8125 7.515625 
L 36.8125 0 
L 27.59375 0 
Q 17.1875 0 13.234375 3.875 
Q 9.28125 7.765625 9.28125 18.015625 
L 9.28125 47.703125 
L 2.6875 47.703125 
L 2.6875 54.6875 
L 9.28125 54.6875 
L 9.28125 70.21875 
z
" id="DejaVuSans-116"/>
       <path d="M 2.984375 54.6875 
L 12.5 54.6875 
L 29.59375 8.796875 
L 46.6875 54.6875 
L 56.203125 54.6875 
L 35.6875 0 
L 23.484375 0 
z
" id="DejaVuSans-118"/>
       <path d="M 44.390625 34.1875 
Q 47.5625 33.109375 50.5625 29.59375 
Q 53.5625 26.078125 56.59375 19.921875 
L 66.609375 0 
L 56 0 
L 46.6875 18.703125 
Q 43.0625 26.03125 39.671875 28.421875 
Q 36.28125 30.8125 30.421875 30.8125 
L 19.671875 30.8125 
L 19.671875 0 
L 9.8125 0 
L 9.8125 72.90625 
L 32.078125 72.90625 
Q 44.578125 72.90625 50.734375 67.671875 
Q 56.890625 62.453125 56.890625 51.90625 
Q 56.890625 45.015625 53.6875 40.46875 
Q 50.484375 35.9375 44.390625 34.1875 
z
M 19.671875 64.796875 
L 19.671875 38.921875 
L 32.078125 38.921875 
Q 39.203125 38.921875 42.84375 42.21875 
Q 46.484375 45.515625 46.484375 51.90625 
Q 46.484375 58.296875 42.84375 61.546875 
Q 39.203125 64.796875 32.078125 64.796875 
z
" id="DejaVuSans-82"/>
      </defs>
      <use xlink:href="#DejaVuSans-70"/>
      <use x="48.394531" xlink:href="#DejaVuSans-97"/>
      <use x="109.673828" xlink:href="#DejaVuSans-108"/>
      <use x="137.457031" xlink:href="#DejaVuSans-115"/>
      <use x="189.556641" xlink:href="#DejaVuSans-101"/>
      <use x="251.080078" xlink:href="#DejaVuSans-32"/>
      <use x="282.867188" xlink:href="#DejaVuSans-80"/>
      <use x="339.544922" xlink:href="#DejaVuSans-111"/>
      <use x="400.726562" xlink:href="#DejaVuSans-115"/>
      <use x="452.826172" xlink:href="#DejaVuSans-105"/>
      <use x="480.609375" xlink:href="#DejaVuSans-116"/>
      <use x="519.818359" xlink:href="#DejaVuSans-105"/>
      <use x="547.601562" xlink:href="#DejaVuSans-118"/>
      <use x="606.78125" xlink:href="#DejaVuSans-101"/>
      <use x="668.304688" xlink:href="#DejaVuSans-32"/>
      <use x="700.091797" xlink:href="#DejaVuSans-82"/>
      <use x="767.324219" xlink:href="#DejaVuSans-97"/>
      <use x="828.603516" xlink:href="#DejaVuSans-116"/>
      <use x="867.8125" xlink:href="#DejaVuSans-101"/>
     </g>
    </g>
   </g>
   <g id="matplotlib.axis_2">
    <g id="ytick_1">
     <g id="line2d_7">
      <defs>
       <path d="M 0 0 
L -3.5 0 
" id="m7e75035712" style="stroke:#000000;stroke-width:0.8;"/>
      </defs>
      <g>
       <use style="stroke:#000000;stroke-width:0.8;" x="57.6" xlink:href="#m7e75035712" y="307.584"/>
      </g>
     </g>
     <g id="text_8">
      <!-- 0.0 -->
      <g transform="translate(34.696875 311.383219)scale(0.1 -0.1)">
       <use xlink:href="#DejaVuSans-48"/>
       <use x="63.623047" xlink:href="#DejaVuSans-46"/>
       <use x="95.410156" xlink:href="#DejaVuSans-48"/>
      </g>
     </g>
    </g>
    <g id="ytick_2">
     <g id="line2d_8">
      <g>
       <use style="stroke:#000000;stroke-width:0.8;" x="57.6" xlink:href="#m7e75035712" y="256.896"/>
      </g>
     </g>
     <g id="text_9">
      <!-- 0.2 -->
      <g transform="translate(34.696875 260.695219)scale(0.1 -0.1)">
       <use xlink:href="#DejaVuSans-48"/>
       <use x="63.623047" xlink:href="#DejaVuSans-46"/>
       <use x="95.410156" xlink:href="#DejaVuSans-50"/>
      </g>
     </g>
    </g>
    <g id="ytick_3">
     <g id="line2d_9">
      <g>
       <use style="stroke:#000000;stroke-width:0.8;" x="57.6" xlink:href="#m7e75035712" y="206.208"/>
      </g>
     </g>
     <g id="text_10">
      <!-- 0.4 -->
      <g transform="translate(34.696875 210.007219)scale(0.1 -0.1)">
       <use xlink:href="#DejaVuSans-48"/>
       <use x="63.623047" xlink:href="#DejaVuSans-46"/>
       <use x="95.410156" xlink:href="#DejaVuSans-52"/>
      </g>
     </g>
    </g>
    <g id="ytick_4">
     <g id="line2d_10">
      <g>
       <use style="stroke:#000000;stroke-width:0.8;" x="57.6" xlink:href="#m7e75035712" y="155.52"/>
      </g>
     </g>
     <g id="text_11">
      <!-- 0.6 -->
      <g transform="translate(34.696875 159.319219)scale(0.1 -0.1)">
       <use xlink:href="#DejaVuSans-48"/>
       <use x="63.623047" xlink:href="#DejaVuSans-46"/>
       <use x="95.410156" xlink:href="#DejaVuSans-54"/>
      </g>
     </g>
    </g>
    <g id="ytick_5">
     <g id="line2d_11">
      <g>
       <use style="stroke:#000000;stroke-width:0.8;" x="57.6" xlink:href="#m7e75035712" y="104.832"/>
      </g>
     </g>
     <g id="text_12">
      <!-- 0.8 -->
      <g transform="translate(34.696875 108.631219)scale(0.1 -0.1)">
       <use xlink:href="#DejaVuSans-48"/>
       <use x="63.623047" xlink:href="#DejaVuSans-46"/>
       <use x="95.410156" xlink:href="#DejaVuSans-56"/>
      </g>
     </g>
    </g>
    <g id="ytick_6">
     <g id="line2d_12">
      <g>
       <use style="stroke:#000000;stroke-width:0.8;" x="57.6" xlink:href="#m7e75035712" y="54.144"/>
      </g>
     </g>
     <g id="text_13">
      <!-- 1.0 -->
      <g transform="translate(34.696875 57.943219)scale(0.1 -0.1)">
       <use xlink:href="#DejaVuSans-49"/>
       <use x="63.623047" xlink:href="#DejaVuSans-46"/>
       <use x="95.410156" xlink:href="#DejaVuSans-48"/>
      </g>
     </g>
    </g>
    <g id="text_14">
     <!-- True Positive Rate -->
     <g transform="translate(28.617187 219.057687)rotate(-90)scale(0.1 -0.1)">
      <defs>
       <path d="M -0.296875 72.90625 
L 61.375 72.90625 
L 61.375 64.59375 
L 35.5 64.59375 
L 35.5 0 
L 25.59375 0 
L 25.59375 64.59375 
L -0.296875 64.59375 
z
" id="DejaVuSans-84"/>
       <path d="M 41.109375 46.296875 
Q 39.59375 47.171875 37.8125 47.578125 
Q 36.03125 48 33.890625 48 
Q 26.265625 48 22.1875 43.046875 
Q 18.109375 38.09375 18.109375 28.8125 
L 18.109375 0 
L 9.078125 0 
L 9.078125 54.6875 
L 18.109375 54.6875 
L 18.109375 46.1875 
Q 20.953125 51.171875 25.484375 53.578125 
Q 30.03125 56 36.53125 56 
Q 37.453125 56 38.578125 55.875 
Q 39.703125 55.765625 41.0625 55.515625 
z
" id="DejaVuSans-114"/>
       <path d="M 8.5 21.578125 
L 8.5 54.6875 
L 17.484375 54.6875 
L 17.484375 21.921875 
Q 17.484375 14.15625 20.5 10.265625 
Q 23.53125 6.390625 29.59375 6.390625 
Q 36.859375 6.390625 41.078125 11.03125 
Q 45.3125 15.671875 45.3125 23.6875 
L 45.3125 54.6875 
L 54.296875 54.6875 
L 54.296875 0 
L 45.3125 0 
L 45.3125 8.40625 
Q 42.046875 3.421875 37.71875 1 
Q 33.40625 -1.421875 27.6875 -1.421875 
Q 18.265625 -1.421875 13.375 4.4375 
Q 8.5 10.296875 8.5 21.578125 
z
M 31.109375 56 
z
" id="DejaVuSans-117"/>
      </defs>
      <use xlink:href="#DejaVuSans-84"/>
      <use x="46.333984" xlink:href="#DejaVuSans-114"/>
      <use x="87.447266" xlink:href="#DejaVuSans-117"/>
      <use x="150.826172" xlink:href="#DejaVuSans-101"/>
      <use x="212.349609" xlink:href="#DejaVuSans-32"/>
      <use x="244.136719" xlink:href="#DejaVuSans-80"/>
      <use x="300.814453" xlink:href="#DejaVuSans-111"/>
      <use x="361.996094" xlink:href="#DejaVuSans-115"/>
      <use x="414.095703" xlink:href="#DejaVuSans-105"/>
      <use x="441.878906" xlink:href="#DejaVuSans-116"/>
      <use x="481.087891" xlink:href="#DejaVuSans-105"/>
      <use x="508.871094" xlink:href="#DejaVuSans-118"/>
      <use x="568.050781" xlink:href="#DejaVuSans-101"/>
      <use x="629.574219" xlink:href="#DejaVuSans-32"/>
      <use x="661.361328" xlink:href="#DejaVuSans-82"/>
      <use x="728.59375" xlink:href="#DejaVuSans-97"/>
      <use x="789.873047" xlink:href="#DejaVuSans-116"/>
      <use x="829.082031" xlink:href="#DejaVuSans-101"/>
     </g>
    </g>
   </g>
   <g id="line2d_13">
    <path clip-path="url(#pf83fccf833)" d="M 57.6 307.584 
L 71.629714 307.584 
L 71.629714 304.566857 
L 78.006857 304.566857 
L 78.006857 301.549714 
L 86.934857 301.549714 
L 86.934857 298.532571 
L 88.210286 298.532571 
L 88.210286 292.498286 
L 92.036571 292.498286 
L 92.036571 289.481143 
L 94.587429 289.481143 
L 94.587429 286.464 
L 97.138286 286.464 
L 97.138286 283.446857 
L 102.24 283.446857 
L 102.24 280.429714 
L 107.341714 280.429714 
L 107.341714 277.412571 
L 109.254857 277.412571 
L 109.254857 274.395429 
L 113.081143 274.395429 
L 113.081143 271.378286 
L 120.733714 271.378286 
L 120.733714 265.344 
L 122.009143 265.344 
L 122.009143 259.309714 
L 127.110857 259.309714 
L 127.110857 256.292571 
L 132.850286 256.292571 
L 132.850286 253.275429 
L 133.488 253.275429 
L 133.488 250.258286 
L 137.952 250.258286 
L 137.952 247.241143 
L 138.589714 247.241143 
L 138.589714 241.206857 
L 141.140571 241.206857 
L 141.140571 235.172571 
L 146.242286 235.172571 
L 146.242286 232.155429 
L 153.257143 232.155429 
L 153.257143 226.121143 
L 153.894857 226.121143 
L 153.894857 223.104 
L 157.083429 223.104 
L 157.083429 220.086857 
L 162.822857 220.086857 
L 162.822857 217.069714 
L 163.460571 217.069714 
L 163.460571 214.052571 
L 164.098286 214.052571 
L 164.098286 211.035429 
L 165.373714 211.035429 
L 165.373714 208.018286 
L 188.331429 208.018286 
L 188.331429 205.001143 
L 190.244571 205.001143 
L 190.244571 201.984 
L 204.274286 201.984 
L 204.274286 195.949714 
L 214.477714 195.949714 
L 214.477714 192.932571 
L 216.390857 192.932571 
L 216.390857 189.915429 
L 224.681143 189.915429 
L 224.681143 186.898286 
L 229.145143 186.898286 
L 229.145143 183.881143 
L 253.378286 183.881143 
L 253.378286 174.829714 
L 256.566857 174.829714 
L 256.566857 171.812571 
L 263.581714 171.812571 
L 263.581714 165.778286 
L 268.045714 165.778286 
L 268.045714 159.744 
L 270.596571 159.744 
L 270.596571 156.726857 
L 284.626286 156.726857 
L 284.626286 153.709714 
L 285.264 153.709714 
L 285.264 147.675429 
L 292.278857 147.675429 
L 292.278857 144.658286 
L 294.829714 144.658286 
L 294.829714 141.641143 
L 301.206857 141.641143 
L 301.206857 135.606857 
L 308.859429 135.606857 
L 308.859429 129.572571 
L 309.497143 129.572571 
L 309.497143 126.555429 
L 312.048 126.555429 
L 312.048 120.521143 
L 322.251429 120.521143 
L 322.251429 117.504 
L 326.077714 117.504 
L 326.077714 114.486857 
L 333.092571 114.486857 
L 333.092571 111.469714 
L 342.020571 111.469714 
L 342.020571 108.452571 
L 345.846857 108.452571 
L 345.846857 105.435429 
L 347.122286 105.435429 
L 347.122286 102.418286 
L 355.412571 102.418286 
L 355.412571 99.401143 
L 363.702857 99.401143 
L 363.702857 93.366857 
L 367.529143 93.366857 
L 367.529143 90.349714 
L 370.08 90.349714 
L 370.08 87.332571 
L 378.370286 87.332571 
L 379.008 84.315429 
L 379.645714 84.315429 
L 379.645714 81.298286 
L 380.283429 81.298286 
L 380.283429 78.281143 
L 383.472 78.281143 
L 383.472 75.264 
L 394.950857 75.264 
L 394.950857 72.246857 
L 400.052571 72.246857 
L 400.052571 69.229714 
L 401.965714 69.229714 
L 401.965714 66.212571 
L 405.154286 66.212571 
L 405.154286 63.195429 
L 407.067429 63.195429 
L 407.067429 60.178286 
L 408.980571 60.178286 
L 408.980571 57.161143 
L 413.444571 57.161143 
L 413.444571 54.144 
L 414.72 54.144 
L 414.72 54.144 
" style="fill:none;stroke:#ff0000;stroke-linecap:square;stroke-width:2;"/>
   </g>
   <g id="line2d_14">
    <path clip-path="url(#pf83fccf833)" d="M 57.6 307.584 
L 61.359158 307.584 
L 61.359158 304.566857 
L 67.624421 304.566857 
L 67.624421 301.549714 
L 75.142737 301.549714 
L 75.142737 295.515429 
L 78.275368 295.515429 
L 78.275368 292.498286 
L 80.781474 292.498286 
L 80.781474 289.481143 
L 81.408 289.481143 
L 81.408 286.464 
L 82.661053 286.464 
L 82.661053 283.446857 
L 86.420211 283.446857 
L 86.420211 277.412571 
L 95.818105 277.412571 
L 95.818105 274.395429 
L 97.697684 274.395429 
L 97.697684 268.361143 
L 102.709895 268.361143 
L 102.709895 265.344 
L 103.336421 265.344 
L 103.336421 259.309714 
L 103.962947 259.309714 
L 103.962947 250.258286 
L 107.095579 250.258286 
L 107.095579 247.241143 
L 108.975158 247.241143 
L 108.975158 241.206857 
L 117.12 241.206857 
L 117.12 238.189714 
L 121.505684 238.189714 
L 121.505684 232.155429 
L 122.132211 232.155429 
L 122.132211 229.138286 
L 124.638316 229.138286 
L 124.638316 223.104 
L 125.264842 223.104 
L 125.264842 220.086857 
L 126.517895 220.086857 
L 126.517895 214.052571 
L 128.397474 214.052571 
L 128.397474 208.018286 
L 132.783158 208.018286 
L 132.783158 205.001143 
L 137.795368 205.001143 
L 137.795368 201.984 
L 144.060632 201.984 
L 144.060632 198.966857 
L 147.819789 198.966857 
L 147.819789 195.949714 
L 149.072842 195.949714 
L 149.072842 192.932571 
L 150.325895 192.932571 
L 150.325895 186.898286 
L 150.952421 186.898286 
L 150.952421 183.881143 
L 151.578947 183.881143 
L 151.578947 177.846857 
L 152.205474 177.846857 
L 152.205474 174.829714 
L 159.097263 174.829714 
L 159.097263 171.812571 
L 159.723789 171.812571 
L 159.723789 168.795429 
L 160.350316 168.795429 
L 160.350316 165.778286 
L 160.976842 165.778286 
L 160.976842 162.761143 
L 164.109474 162.761143 
L 164.109474 159.744 
L 173.507368 159.744 
L 173.507368 156.726857 
L 179.772632 156.726857 
L 179.772632 153.709714 
L 187.917474 153.709714 
L 187.917474 150.692571 
L 191.050105 150.692571 
L 191.050105 147.675429 
L 198.568421 147.675429 
L 198.568421 144.658286 
L 201.701053 144.658286 
L 201.701053 141.641143 
L 202.327579 141.641143 
L 202.327579 138.624 
L 211.725474 138.624 
L 211.725474 135.606857 
L 217.364211 135.606857 
L 217.364211 132.589714 
L 225.509053 132.589714 
L 225.509053 129.572571 
L 228.641684 129.572571 
L 228.641684 123.538286 
L 230.521263 123.538286 
L 230.521263 120.521143 
L 235.533474 120.521143 
L 235.533474 117.504 
L 239.292632 117.504 
L 239.292632 114.486857 
L 243.678316 114.486857 
L 243.678316 111.469714 
L 244.304842 111.469714 
L 244.304842 105.435429 
L 255.582316 105.435429 
L 255.582316 102.418286 
L 258.714947 102.418286 
L 258.714947 99.401143 
L 265.606737 99.401143 
L 265.606737 96.384 
L 269.365895 96.384 
L 269.365895 93.366857 
L 271.245474 93.366857 
L 271.245474 90.349714 
L 273.125053 90.349714 
L 273.125053 87.332571 
L 280.016842 87.332571 
L 280.016842 84.315429 
L 281.896421 84.315429 
L 281.896421 81.298286 
L 283.776 81.298286 
L 283.776 78.281143 
L 285.655579 78.281143 
L 285.655579 75.264 
L 311.343158 75.264 
L 311.343158 72.246857 
L 317.608421 72.246857 
L 317.608421 69.229714 
L 325.126737 69.229714 
L 325.126737 66.212571 
L 346.428632 66.212571 
L 346.428632 63.195429 
L 349.561263 63.195429 
L 349.561263 60.178286 
L 360.838737 60.178286 
L 360.838737 57.161143 
L 363.971368 57.161143 
L 363.971368 54.144 
L 414.72 54.144 
L 414.72 54.144 
" style="fill:none;stroke:#008000;stroke-linecap:square;stroke-width:2;"/>
   </g>
   <g id="line2d_15">
    <path clip-path="url(#pf83fccf833)" d="M 57.6 307.584 
L 63.170329 307.584 
L 63.170329 304.602353 
L 65.646031 304.602353 
L 65.646031 301.620706 
L 66.264957 301.620706 
L 66.264957 298.639059 
L 68.740659 298.639059 
L 68.740659 295.657412 
L 69.359584 295.657412 
L 69.359584 280.749176 
L 69.97851 277.767529 
L 71.835286 277.767529 
L 71.835286 271.804235 
L 73.073137 271.804235 
L 73.073137 268.822588 
L 73.692062 268.822588 
L 73.692062 262.859294 
L 76.167764 262.859294 
L 76.167764 259.877647 
L 78.024541 259.877647 
L 78.024541 256.896 
L 78.643466 256.896 
L 78.643466 253.914353 
L 79.881317 253.914353 
L 79.881317 250.932706 
L 81.119168 250.932706 
L 81.119168 247.951059 
L 83.59487 247.951059 
L 83.59487 244.969412 
L 86.689497 244.969412 
L 86.689497 241.987765 
L 87.927348 241.987765 
L 87.927348 239.006118 
L 91.640901 239.006118 
L 91.640901 233.042824 
L 94.116603 233.042824 
L 94.116603 230.061176 
L 97.830156 230.061176 
L 97.830156 227.079529 
L 105.257262 227.079529 
L 105.257262 224.097882 
L 112.065442 224.097882 
L 112.065442 221.116235 
L 112.684367 221.116235 
L 112.684367 215.152941 
L 113.303293 215.152941 
L 113.303293 212.171294 
L 114.541144 212.171294 
L 114.541144 203.226353 
L 117.635771 203.226353 
L 117.635771 197.263059 
L 118.254697 194.281412 
L 118.873622 194.281412 
L 118.873622 191.299765 
L 122.587175 191.299765 
L 122.587175 188.318118 
L 128.157504 188.318118 
L 128.157504 185.336471 
L 131.871057 185.336471 
L 131.871057 182.354824 
L 134.346759 182.354824 
L 134.346759 179.373176 
L 138.679237 179.373176 
L 138.679237 176.391529 
L 139.917088 176.391529 
L 139.917088 173.409882 
L 145.487418 173.409882 
L 145.487418 170.428235 
L 149.819896 170.428235 
L 149.819896 167.446588 
L 150.438821 167.446588 
L 150.438821 164.464941 
L 151.057747 164.464941 
L 151.057747 158.501647 
L 152.295598 158.501647 
L 152.295598 155.52 
L 152.914523 155.52 
L 152.914523 152.538353 
L 162.198406 152.538353 
L 162.198406 149.556706 
L 166.530884 149.556706 
L 166.530884 146.575059 
L 167.149809 146.575059 
L 167.149809 143.593412 
L 171.482288 143.593412 
L 171.482288 140.611765 
L 172.720139 140.611765 
L 172.720139 137.630118 
L 175.814766 137.630118 
L 176.433692 134.648471 
L 181.385095 134.648471 
L 181.385095 131.666824 
L 183.860797 131.666824 
L 183.860797 128.685176 
L 189.431127 128.685176 
L 189.431127 125.703529 
L 190.050052 125.703529 
L 190.050052 122.721882 
L 192.525754 122.721882 
L 192.525754 119.740235 
L 193.144679 119.740235 
L 193.144679 116.758588 
L 196.239307 116.758588 
L 196.239307 113.776941 
L 201.190711 113.776941 
L 201.190711 110.795294 
L 203.666412 110.795294 
L 203.666412 104.832 
L 204.904263 104.832 
L 204.904263 101.850353 
L 207.379965 101.850353 
L 207.379965 95.887059 
L 219.758475 95.887059 
L 219.758475 92.905412 
L 226.566655 92.905412 
L 226.566655 89.923765 
L 228.423432 89.923765 
L 228.423432 86.942118 
L 230.280208 86.942118 
L 230.280208 80.978824 
L 233.374835 80.978824 
L 233.374835 77.997176 
L 238.326239 77.997176 
L 238.326239 75.015529 
L 253.180451 75.015529 
L 254.418302 69.052235 
L 263.083258 69.052235 
L 263.083258 66.070588 
L 274.223917 66.070588 
L 274.223917 63.088941 
L 285.364575 63.088941 
L 285.364575 60.107294 
L 293.410607 60.107294 
L 293.410607 57.125647 
L 297.743085 57.125647 
L 297.743085 54.144 
L 414.72 54.144 
L 414.72 54.144 
" style="fill:none;stroke:#0000ff;stroke-linecap:square;stroke-width:2;"/>
   </g>
   <g id="line2d_16">
    <path clip-path="url(#pf83fccf833)" d="M 57.6 307.584 
L 57.6 304.566857 
L 60.150857 304.566857 
L 60.150857 301.549714 
L 60.788571 301.549714 
L 60.788571 295.515429 
L 62.701714 295.515429 
L 62.701714 292.498286 
L 63.339429 292.498286 
L 63.339429 289.481143 
L 64.614857 289.481143 
L 64.614857 286.464 
L 68.441143 286.464 
L 68.441143 283.446857 
L 72.905143 283.446857 
L 72.905143 280.429714 
L 73.542857 280.429714 
L 73.542857 277.412571 
L 74.180571 277.412571 
L 74.180571 274.395429 
L 74.818286 274.395429 
L 74.818286 271.378286 
L 79.92 271.378286 
L 79.92 268.361143 
L 83.108571 268.361143 
L 83.108571 265.344 
L 83.746286 265.344 
L 83.746286 262.326857 
L 93.949714 262.326857 
L 93.949714 259.309714 
L 95.862857 259.309714 
L 95.862857 256.292571 
L 98.413714 256.292571 
L 98.413714 253.275429 
L 101.602286 253.275429 
L 101.602286 250.258286 
L 102.24 250.258286 
L 102.24 247.241143 
L 103.515429 247.241143 
L 103.515429 244.224 
L 104.790857 244.224 
L 104.790857 241.206857 
L 106.704 241.206857 
L 106.704 235.172571 
L 108.617143 235.172571 
L 108.617143 232.155429 
L 112.443429 232.155429 
L 112.443429 229.138286 
L 114.356571 229.138286 
L 114.356571 226.121143 
L 116.907429 226.121143 
L 116.907429 217.069714 
L 117.545143 217.069714 
L 117.545143 211.035429 
L 121.371429 211.035429 
L 121.371429 205.001143 
L 122.009143 205.001143 
L 122.009143 198.966857 
L 122.646857 198.966857 
L 122.646857 195.949714 
L 124.56 195.949714 
L 124.56 177.846857 
L 125.835429 177.846857 
L 125.835429 174.829714 
L 126.473143 174.829714 
L 126.473143 171.812571 
L 132.850286 171.812571 
L 132.850286 168.795429 
L 135.401143 168.795429 
L 135.401143 162.761143 
L 137.314286 162.761143 
L 137.314286 159.744 
L 139.227429 159.744 
L 139.227429 156.726857 
L 142.416 156.726857 
L 142.416 153.709714 
L 144.329143 153.709714 
L 144.329143 150.692571 
L 144.966857 150.692571 
L 144.966857 147.675429 
L 148.155429 147.675429 
L 148.155429 144.658286 
L 151.344 144.658286 
L 151.344 141.641143 
L 155.808 141.641143 
L 155.808 138.624 
L 158.996571 138.624 
L 158.996571 132.589714 
L 164.098286 132.589714 
L 164.098286 126.555429 
L 165.373714 126.555429 
L 165.373714 123.538286 
L 169.837714 123.538286 
L 169.837714 117.504 
L 170.475429 117.504 
L 170.475429 114.486857 
L 173.026286 114.486857 
L 173.026286 111.469714 
L 175.577143 111.469714 
L 175.577143 108.452571 
L 183.229714 108.452571 
L 183.229714 102.418286 
L 184.505143 102.418286 
L 184.505143 99.401143 
L 190.882286 99.401143 
L 190.882286 96.384 
L 191.52 96.384 
L 191.52 93.366857 
L 196.621714 93.366857 
L 196.621714 87.332571 
L 197.897143 87.332571 
L 197.897143 84.315429 
L 206.825143 84.315429 
L 206.825143 81.298286 
L 210.013714 81.298286 
L 210.013714 78.281143 
L 216.390857 78.281143 
L 216.390857 75.264 
L 218.941714 75.264 
L 218.941714 72.246857 
L 222.130286 72.246857 
L 222.130286 69.229714 
L 231.696 69.229714 
L 231.696 63.195429 
L 234.884571 63.195429 
L 234.884571 60.178286 
L 331.179429 60.178286 
L 331.179429 57.161143 
L 387.936 57.161143 
L 387.936 54.144 
L 414.72 54.144 
L 414.72 54.144 
" style="fill:none;stroke:#ffa500;stroke-linecap:square;stroke-width:2;"/>
   </g>
   <g id="line2d_17">
    <path clip-path="url(#pf83fccf833)" d="M 57.6 307.584 
L 414.72 54.144 
" style="fill:none;stroke:#000080;stroke-dasharray:7.4,3.2;stroke-dashoffset:0;stroke-width:2;"/>
   </g>
   <g id="patch_3">
    <path d="M 57.6 307.584 
L 57.6 41.472 
" style="fill:none;stroke:#000000;stroke-linecap:square;stroke-linejoin:miter;stroke-width:0.8;"/>
   </g>
   <g id="patch_4">
    <path d="M 414.72 307.584 
L 414.72 41.472 
" style="fill:none;stroke:#000000;stroke-linecap:square;stroke-linejoin:miter;stroke-width:0.8;"/>
   </g>
   <g id="patch_5">
    <path d="M 57.6 307.584 
L 414.72 307.584 
" style="fill:none;stroke:#000000;stroke-linecap:square;stroke-linejoin:miter;stroke-width:0.8;"/>
   </g>
   <g id="patch_6">
    <path d="M 57.6 41.472 
L 414.72 41.472 
" style="fill:none;stroke:#000000;stroke-linecap:square;stroke-linejoin:miter;stroke-width:0.8;"/>
   </g>
   <g id="text_15">
    <!-- Receiver operating characteristic example -->
    <g transform="translate(108.865313 35.472)scale(0.12 -0.12)">
     <defs>
      <path d="M 48.78125 52.59375 
L 48.78125 44.1875 
Q 44.96875 46.296875 41.140625 47.34375 
Q 37.3125 48.390625 33.40625 48.390625 
Q 24.65625 48.390625 19.8125 42.84375 
Q 14.984375 37.3125 14.984375 27.296875 
Q 14.984375 17.28125 19.8125 11.734375 
Q 24.65625 6.203125 33.40625 6.203125 
Q 37.3125 6.203125 41.140625 7.25 
Q 44.96875 8.296875 48.78125 10.40625 
L 48.78125 2.09375 
Q 45.015625 0.34375 40.984375 -0.53125 
Q 36.96875 -1.421875 32.421875 -1.421875 
Q 20.0625 -1.421875 12.78125 6.34375 
Q 5.515625 14.109375 5.515625 27.296875 
Q 5.515625 40.671875 12.859375 48.328125 
Q 20.21875 56 33.015625 56 
Q 37.15625 56 41.109375 55.140625 
Q 45.0625 54.296875 48.78125 52.59375 
z
" id="DejaVuSans-99"/>
      <path d="M 18.109375 8.203125 
L 18.109375 -20.796875 
L 9.078125 -20.796875 
L 9.078125 54.6875 
L 18.109375 54.6875 
L 18.109375 46.390625 
Q 20.953125 51.265625 25.265625 53.625 
Q 29.59375 56 35.59375 56 
Q 45.5625 56 51.78125 48.09375 
Q 58.015625 40.1875 58.015625 27.296875 
Q 58.015625 14.40625 51.78125 6.484375 
Q 45.5625 -1.421875 35.59375 -1.421875 
Q 29.59375 -1.421875 25.265625 0.953125 
Q 20.953125 3.328125 18.109375 8.203125 
z
M 48.6875 27.296875 
Q 48.6875 37.203125 44.609375 42.84375 
Q 40.53125 48.484375 33.40625 48.484375 
Q 26.265625 48.484375 22.1875 42.84375 
Q 18.109375 37.203125 18.109375 27.296875 
Q 18.109375 17.390625 22.1875 11.75 
Q 26.265625 6.109375 33.40625 6.109375 
Q 40.53125 6.109375 44.609375 11.75 
Q 48.6875 17.390625 48.6875 27.296875 
z
" id="DejaVuSans-112"/>
      <path d="M 54.890625 33.015625 
L 54.890625 0 
L 45.90625 0 
L 45.90625 32.71875 
Q 45.90625 40.484375 42.875 44.328125 
Q 39.84375 48.1875 33.796875 48.1875 
Q 26.515625 48.1875 22.3125 43.546875 
Q 18.109375 38.921875 18.109375 30.90625 
L 18.109375 0 
L 9.078125 0 
L 9.078125 54.6875 
L 18.109375 54.6875 
L 18.109375 46.1875 
Q 21.34375 51.125 25.703125 53.5625 
Q 30.078125 56 35.796875 56 
Q 45.21875 56 50.046875 50.171875 
Q 54.890625 44.34375 54.890625 33.015625 
z
" id="DejaVuSans-110"/>
      <path d="M 45.40625 27.984375 
Q 45.40625 37.75 41.375 43.109375 
Q 37.359375 48.484375 30.078125 48.484375 
Q 22.859375 48.484375 18.828125 43.109375 
Q 14.796875 37.75 14.796875 27.984375 
Q 14.796875 18.265625 18.828125 12.890625 
Q 22.859375 7.515625 30.078125 7.515625 
Q 37.359375 7.515625 41.375 12.890625 
Q 45.40625 18.265625 45.40625 27.984375 
z
M 54.390625 6.78125 
Q 54.390625 -7.171875 48.1875 -13.984375 
Q 42 -20.796875 29.203125 -20.796875 
Q 24.46875 -20.796875 20.265625 -20.09375 
Q 16.0625 -19.390625 12.109375 -17.921875 
L 12.109375 -9.1875 
Q 16.0625 -11.328125 19.921875 -12.34375 
Q 23.78125 -13.375 27.78125 -13.375 
Q 36.625 -13.375 41.015625 -8.765625 
Q 45.40625 -4.15625 45.40625 5.171875 
L 45.40625 9.625 
Q 42.625 4.78125 38.28125 2.390625 
Q 33.9375 0 27.875 0 
Q 17.828125 0 11.671875 7.65625 
Q 5.515625 15.328125 5.515625 27.984375 
Q 5.515625 40.671875 11.671875 48.328125 
Q 17.828125 56 27.875 56 
Q 33.9375 56 38.28125 53.609375 
Q 42.625 51.21875 45.40625 46.390625 
L 45.40625 54.6875 
L 54.390625 54.6875 
z
" id="DejaVuSans-103"/>
      <path d="M 54.890625 33.015625 
L 54.890625 0 
L 45.90625 0 
L 45.90625 32.71875 
Q 45.90625 40.484375 42.875 44.328125 
Q 39.84375 48.1875 33.796875 48.1875 
Q 26.515625 48.1875 22.3125 43.546875 
Q 18.109375 38.921875 18.109375 30.90625 
L 18.109375 0 
L 9.078125 0 
L 9.078125 75.984375 
L 18.109375 75.984375 
L 18.109375 46.1875 
Q 21.34375 51.125 25.703125 53.5625 
Q 30.078125 56 35.796875 56 
Q 45.21875 56 50.046875 50.171875 
Q 54.890625 44.34375 54.890625 33.015625 
z
" id="DejaVuSans-104"/>
      <path d="M 54.890625 54.6875 
L 35.109375 28.078125 
L 55.90625 0 
L 45.3125 0 
L 29.390625 21.484375 
L 13.484375 0 
L 2.875 0 
L 24.125 28.609375 
L 4.6875 54.6875 
L 15.28125 54.6875 
L 29.78125 35.203125 
L 44.28125 54.6875 
z
" id="DejaVuSans-120"/>
      <path d="M 52 44.1875 
Q 55.375 50.25 60.0625 53.125 
Q 64.75 56 71.09375 56 
Q 79.640625 56 84.28125 50.015625 
Q 88.921875 44.046875 88.921875 33.015625 
L 88.921875 0 
L 79.890625 0 
L 79.890625 32.71875 
Q 79.890625 40.578125 77.09375 44.375 
Q 74.3125 48.1875 68.609375 48.1875 
Q 61.625 48.1875 57.5625 43.546875 
Q 53.515625 38.921875 53.515625 30.90625 
L 53.515625 0 
L 44.484375 0 
L 44.484375 32.71875 
Q 44.484375 40.625 41.703125 44.40625 
Q 38.921875 48.1875 33.109375 48.1875 
Q 26.21875 48.1875 22.15625 43.53125 
Q 18.109375 38.875 18.109375 30.90625 
L 18.109375 0 
L 9.078125 0 
L 9.078125 54.6875 
L 18.109375 54.6875 
L 18.109375 46.1875 
Q 21.1875 51.21875 25.484375 53.609375 
Q 29.78125 56 35.6875 56 
Q 41.65625 56 45.828125 52.96875 
Q 50 49.953125 52 44.1875 
z
" id="DejaVuSans-109"/>
     </defs>
     <use xlink:href="#DejaVuSans-82"/>
     <use x="64.982422" xlink:href="#DejaVuSans-101"/>
     <use x="126.505859" xlink:href="#DejaVuSans-99"/>
     <use x="181.486328" xlink:href="#DejaVuSans-101"/>
     <use x="243.009766" xlink:href="#DejaVuSans-105"/>
     <use x="270.792969" xlink:href="#DejaVuSans-118"/>
     <use x="329.972656" xlink:href="#DejaVuSans-101"/>
     <use x="391.496094" xlink:href="#DejaVuSans-114"/>
     <use x="432.609375" xlink:href="#DejaVuSans-32"/>
     <use x="464.396484" xlink:href="#DejaVuSans-111"/>
     <use x="525.578125" xlink:href="#DejaVuSans-112"/>
     <use x="589.054688" xlink:href="#DejaVuSans-101"/>
     <use x="650.578125" xlink:href="#DejaVuSans-114"/>
     <use x="691.691406" xlink:href="#DejaVuSans-97"/>
     <use x="752.970703" xlink:href="#DejaVuSans-116"/>
     <use x="792.179688" xlink:href="#DejaVuSans-105"/>
     <use x="819.962891" xlink:href="#DejaVuSans-110"/>
     <use x="883.341797" xlink:href="#DejaVuSans-103"/>
     <use x="946.818359" xlink:href="#DejaVuSans-32"/>
     <use x="978.605469" xlink:href="#DejaVuSans-99"/>
     <use x="1033.585938" xlink:href="#DejaVuSans-104"/>
     <use x="1096.964844" xlink:href="#DejaVuSans-97"/>
     <use x="1158.244141" xlink:href="#DejaVuSans-114"/>
     <use x="1199.357422" xlink:href="#DejaVuSans-97"/>
     <use x="1260.636719" xlink:href="#DejaVuSans-99"/>
     <use x="1315.617188" xlink:href="#DejaVuSans-116"/>
     <use x="1354.826172" xlink:href="#DejaVuSans-101"/>
     <use x="1416.349609" xlink:href="#DejaVuSans-114"/>
     <use x="1457.462891" xlink:href="#DejaVuSans-105"/>
     <use x="1485.246094" xlink:href="#DejaVuSans-115"/>
     <use x="1537.345703" xlink:href="#DejaVuSans-116"/>
     <use x="1576.554688" xlink:href="#DejaVuSans-105"/>
     <use x="1604.337891" xlink:href="#DejaVuSans-99"/>
     <use x="1659.318359" xlink:href="#DejaVuSans-32"/>
     <use x="1691.105469" xlink:href="#DejaVuSans-101"/>
     <use x="1750.878906" xlink:href="#DejaVuSans-120"/>
     <use x="1810.058594" xlink:href="#DejaVuSans-97"/>
     <use x="1871.337891" xlink:href="#DejaVuSans-109"/>
     <use x="1968.75" xlink:href="#DejaVuSans-112"/>
     <use x="2032.226562" xlink:href="#DejaVuSans-108"/>
     <use x="2060.009766" xlink:href="#DejaVuSans-101"/>
    </g>
   </g>
   <g id="legend_1">
    <g id="patch_7">
     <path d="M 214.754375 302.584 
L 407.72 302.584 
Q 409.72 302.584 409.72 300.584 
L 409.72 242.8715 
Q 409.72 240.8715 407.72 240.8715 
L 214.754375 240.8715 
Q 212.754375 240.8715 212.754375 242.8715 
L 212.754375 300.584 
Q 212.754375 302.584 214.754375 302.584 
z
" style="fill:#ffffff;opacity:0.8;stroke:#cccccc;stroke-linejoin:miter;"/>
    </g>
    <g id="line2d_18">
     <path d="M 216.754375 248.969937 
L 236.754375 248.969937 
" style="fill:none;stroke:#ff0000;stroke-linecap:square;stroke-width:2;"/>
    </g>
    <g id="line2d_19"/>
    <g id="text_16">
     <!-- iedb (area = 0.50) -->
     <g transform="translate(244.754375 252.469937)scale(0.1 -0.1)">
      <defs>
       <path d="M 45.40625 46.390625 
L 45.40625 75.984375 
L 54.390625 75.984375 
L 54.390625 0 
L 45.40625 0 
L 45.40625 8.203125 
Q 42.578125 3.328125 38.25 0.953125 
Q 33.9375 -1.421875 27.875 -1.421875 
Q 17.96875 -1.421875 11.734375 6.484375 
Q 5.515625 14.40625 5.515625 27.296875 
Q 5.515625 40.1875 11.734375 48.09375 
Q 17.96875 56 27.875 56 
Q 33.9375 56 38.25 53.625 
Q 42.578125 51.265625 45.40625 46.390625 
z
M 14.796875 27.296875 
Q 14.796875 17.390625 18.875 11.75 
Q 22.953125 6.109375 30.078125 6.109375 
Q 37.203125 6.109375 41.296875 11.75 
Q 45.40625 17.390625 45.40625 27.296875 
Q 45.40625 37.203125 41.296875 42.84375 
Q 37.203125 48.484375 30.078125 48.484375 
Q 22.953125 48.484375 18.875 42.84375 
Q 14.796875 37.203125 14.796875 27.296875 
z
" id="DejaVuSans-100"/>
       <path d="M 48.6875 27.296875 
Q 48.6875 37.203125 44.609375 42.84375 
Q 40.53125 48.484375 33.40625 48.484375 
Q 26.265625 48.484375 22.1875 42.84375 
Q 18.109375 37.203125 18.109375 27.296875 
Q 18.109375 17.390625 22.1875 11.75 
Q 26.265625 6.109375 33.40625 6.109375 
Q 40.53125 6.109375 44.609375 11.75 
Q 48.6875 17.390625 48.6875 27.296875 
z
M 18.109375 46.390625 
Q 20.953125 51.265625 25.265625 53.625 
Q 29.59375 56 35.59375 56 
Q 45.5625 56 51.78125 48.09375 
Q 58.015625 40.1875 58.015625 27.296875 
Q 58.015625 14.40625 51.78125 6.484375 
Q 45.5625 -1.421875 35.59375 -1.421875 
Q 29.59375 -1.421875 25.265625 0.953125 
Q 20.953125 3.328125 18.109375 8.203125 
L 18.109375 0 
L 9.078125 0 
L 9.078125 75.984375 
L 18.109375 75.984375 
z
" id="DejaVuSans-98"/>
       <path d="M 31 75.875 
Q 24.46875 64.65625 21.28125 53.65625 
Q 18.109375 42.671875 18.109375 31.390625 
Q 18.109375 20.125 21.3125 9.0625 
Q 24.515625 -2 31 -13.1875 
L 23.1875 -13.1875 
Q 15.875 -1.703125 12.234375 9.375 
Q 8.59375 20.453125 8.59375 31.390625 
Q 8.59375 42.28125 12.203125 53.3125 
Q 15.828125 64.359375 23.1875 75.875 
z
" id="DejaVuSans-40"/>
       <path d="M 10.59375 45.40625 
L 73.1875 45.40625 
L 73.1875 37.203125 
L 10.59375 37.203125 
z
M 10.59375 25.484375 
L 73.1875 25.484375 
L 73.1875 17.1875 
L 10.59375 17.1875 
z
" id="DejaVuSans-61"/>
       <path d="M 10.796875 72.90625 
L 49.515625 72.90625 
L 49.515625 64.59375 
L 19.828125 64.59375 
L 19.828125 46.734375 
Q 21.96875 47.46875 24.109375 47.828125 
Q 26.265625 48.1875 28.421875 48.1875 
Q 40.625 48.1875 47.75 41.5 
Q 54.890625 34.8125 54.890625 23.390625 
Q 54.890625 11.625 47.5625 5.09375 
Q 40.234375 -1.421875 26.90625 -1.421875 
Q 22.3125 -1.421875 17.546875 -0.640625 
Q 12.796875 0.140625 7.71875 1.703125 
L 7.71875 11.625 
Q 12.109375 9.234375 16.796875 8.0625 
Q 21.484375 6.890625 26.703125 6.890625 
Q 35.15625 6.890625 40.078125 11.328125 
Q 45.015625 15.765625 45.015625 23.390625 
Q 45.015625 31 40.078125 35.4375 
Q 35.15625 39.890625 26.703125 39.890625 
Q 22.75 39.890625 18.8125 39.015625 
Q 14.890625 38.140625 10.796875 36.28125 
z
" id="DejaVuSans-53"/>
       <path d="M 8.015625 75.875 
L 15.828125 75.875 
Q 23.140625 64.359375 26.78125 53.3125 
Q 30.421875 42.28125 30.421875 31.390625 
Q 30.421875 20.453125 26.78125 9.375 
Q 23.140625 -1.703125 15.828125 -13.1875 
L 8.015625 -13.1875 
Q 14.5 -2 17.703125 9.0625 
Q 20.90625 20.125 20.90625 31.390625 
Q 20.90625 42.671875 17.703125 53.65625 
Q 14.5 64.65625 8.015625 75.875 
z
" id="DejaVuSans-41"/>
      </defs>
      <use xlink:href="#DejaVuSans-105"/>
      <use x="27.783203" xlink:href="#DejaVuSans-101"/>
      <use x="89.306641" xlink:href="#DejaVuSans-100"/>
      <use x="152.783203" xlink:href="#DejaVuSans-98"/>
      <use x="216.259766" xlink:href="#DejaVuSans-32"/>
      <use x="248.046875" xlink:href="#DejaVuSans-40"/>
      <use x="287.060547" xlink:href="#DejaVuSans-97"/>
      <use x="348.339844" xlink:href="#DejaVuSans-114"/>
      <use x="387.203125" xlink:href="#DejaVuSans-101"/>
      <use x="448.726562" xlink:href="#DejaVuSans-97"/>
      <use x="510.005859" xlink:href="#DejaVuSans-32"/>
      <use x="541.792969" xlink:href="#DejaVuSans-61"/>
      <use x="625.582031" xlink:href="#DejaVuSans-32"/>
      <use x="657.369141" xlink:href="#DejaVuSans-48"/>
      <use x="720.992188" xlink:href="#DejaVuSans-46"/>
      <use x="752.779297" xlink:href="#DejaVuSans-53"/>
      <use x="816.402344" xlink:href="#DejaVuSans-48"/>
      <use x="880.025391" xlink:href="#DejaVuSans-41"/>
     </g>
    </g>
    <g id="line2d_20">
     <path d="M 216.754375 263.648062 
L 236.754375 263.648062 
" style="fill:none;stroke:#008000;stroke-linecap:square;stroke-width:2;"/>
    </g>
    <g id="line2d_21"/>
    <g id="text_17">
     <!-- logistic regression (area = 0.67) -->
     <g transform="translate(244.754375 267.148062)scale(0.1 -0.1)">
      <defs>
       <path d="M 8.203125 72.90625 
L 55.078125 72.90625 
L 55.078125 68.703125 
L 28.609375 0 
L 18.3125 0 
L 43.21875 64.59375 
L 8.203125 64.59375 
z
" id="DejaVuSans-55"/>
      </defs>
      <use xlink:href="#DejaVuSans-108"/>
      <use x="27.783203" xlink:href="#DejaVuSans-111"/>
      <use x="88.964844" xlink:href="#DejaVuSans-103"/>
      <use x="152.441406" xlink:href="#DejaVuSans-105"/>
      <use x="180.224609" xlink:href="#DejaVuSans-115"/>
      <use x="232.324219" xlink:href="#DejaVuSans-116"/>
      <use x="271.533203" xlink:href="#DejaVuSans-105"/>
      <use x="299.316406" xlink:href="#DejaVuSans-99"/>
      <use x="354.296875" xlink:href="#DejaVuSans-32"/>
      <use x="386.083984" xlink:href="#DejaVuSans-114"/>
      <use x="424.947266" xlink:href="#DejaVuSans-101"/>
      <use x="486.470703" xlink:href="#DejaVuSans-103"/>
      <use x="549.947266" xlink:href="#DejaVuSans-114"/>
      <use x="588.810547" xlink:href="#DejaVuSans-101"/>
      <use x="650.333984" xlink:href="#DejaVuSans-115"/>
      <use x="702.433594" xlink:href="#DejaVuSans-115"/>
      <use x="754.533203" xlink:href="#DejaVuSans-105"/>
      <use x="782.316406" xlink:href="#DejaVuSans-111"/>
      <use x="843.498047" xlink:href="#DejaVuSans-110"/>
      <use x="906.876953" xlink:href="#DejaVuSans-32"/>
      <use x="938.664062" xlink:href="#DejaVuSans-40"/>
      <use x="977.677734" xlink:href="#DejaVuSans-97"/>
      <use x="1038.957031" xlink:href="#DejaVuSans-114"/>
      <use x="1077.820312" xlink:href="#DejaVuSans-101"/>
      <use x="1139.34375" xlink:href="#DejaVuSans-97"/>
      <use x="1200.623047" xlink:href="#DejaVuSans-32"/>
      <use x="1232.410156" xlink:href="#DejaVuSans-61"/>
      <use x="1316.199219" xlink:href="#DejaVuSans-32"/>
      <use x="1347.986328" xlink:href="#DejaVuSans-48"/>
      <use x="1411.609375" xlink:href="#DejaVuSans-46"/>
      <use x="1443.396484" xlink:href="#DejaVuSans-54"/>
      <use x="1507.019531" xlink:href="#DejaVuSans-55"/>
      <use x="1570.642578" xlink:href="#DejaVuSans-41"/>
     </g>
    </g>
    <g id="line2d_22">
     <path d="M 216.754375 278.326187 
L 236.754375 278.326187 
" style="fill:none;stroke:#0000ff;stroke-linecap:square;stroke-width:2;"/>
    </g>
    <g id="line2d_23"/>
    <g id="text_18">
     <!-- deephlapan (area = 0.75) -->
     <g transform="translate(244.754375 281.826187)scale(0.1 -0.1)">
      <use xlink:href="#DejaVuSans-100"/>
      <use x="63.476562" xlink:href="#DejaVuSans-101"/>
      <use x="125" xlink:href="#DejaVuSans-101"/>
      <use x="186.523438" xlink:href="#DejaVuSans-112"/>
      <use x="250" xlink:href="#DejaVuSans-104"/>
      <use x="313.378906" xlink:href="#DejaVuSans-108"/>
      <use x="341.162109" xlink:href="#DejaVuSans-97"/>
      <use x="402.441406" xlink:href="#DejaVuSans-112"/>
      <use x="465.917969" xlink:href="#DejaVuSans-97"/>
      <use x="527.197266" xlink:href="#DejaVuSans-110"/>
      <use x="590.576172" xlink:href="#DejaVuSans-32"/>
      <use x="622.363281" xlink:href="#DejaVuSans-40"/>
      <use x="661.376953" xlink:href="#DejaVuSans-97"/>
      <use x="722.65625" xlink:href="#DejaVuSans-114"/>
      <use x="761.519531" xlink:href="#DejaVuSans-101"/>
      <use x="823.042969" xlink:href="#DejaVuSans-97"/>
      <use x="884.322266" xlink:href="#DejaVuSans-32"/>
      <use x="916.109375" xlink:href="#DejaVuSans-61"/>
      <use x="999.898438" xlink:href="#DejaVuSans-32"/>
      <use x="1031.685547" xlink:href="#DejaVuSans-48"/>
      <use x="1095.308594" xlink:href="#DejaVuSans-46"/>
      <use x="1127.095703" xlink:href="#DejaVuSans-55"/>
      <use x="1190.71875" xlink:href="#DejaVuSans-53"/>
      <use x="1254.341797" xlink:href="#DejaVuSans-41"/>
     </g>
    </g>
    <g id="line2d_24">
     <path d="M 216.754375 293.004312 
L 236.754375 293.004312 
" style="fill:none;stroke:#ffa500;stroke-linecap:square;stroke-width:2;"/>
    </g>
    <g id="line2d_25"/>
    <g id="text_19">
     <!-- deepimmuno (area = 0.77) -->
     <g transform="translate(244.754375 296.504312)scale(0.1 -0.1)">
      <use xlink:href="#DejaVuSans-100"/>
      <use x="63.476562" xlink:href="#DejaVuSans-101"/>
      <use x="125" xlink:href="#DejaVuSans-101"/>
      <use x="186.523438" xlink:href="#DejaVuSans-112"/>
      <use x="250" xlink:href="#DejaVuSans-105"/>
      <use x="277.783203" xlink:href="#DejaVuSans-109"/>
      <use x="375.195312" xlink:href="#DejaVuSans-109"/>
      <use x="472.607422" xlink:href="#DejaVuSans-117"/>
      <use x="535.986328" xlink:href="#DejaVuSans-110"/>
      <use x="599.365234" xlink:href="#DejaVuSans-111"/>
      <use x="660.546875" xlink:href="#DejaVuSans-32"/>
      <use x="692.333984" xlink:href="#DejaVuSans-40"/>
      <use x="731.347656" xlink:href="#DejaVuSans-97"/>
      <use x="792.626953" xlink:href="#DejaVuSans-114"/>
      <use x="831.490234" xlink:href="#DejaVuSans-101"/>
      <use x="893.013672" xlink:href="#DejaVuSans-97"/>
      <use x="954.292969" xlink:href="#DejaVuSans-32"/>
      <use x="986.080078" xlink:href="#DejaVuSans-61"/>
      <use x="1069.869141" xlink:href="#DejaVuSans-32"/>
      <use x="1101.65625" xlink:href="#DejaVuSans-48"/>
      <use x="1165.279297" xlink:href="#DejaVuSans-46"/>
      <use x="1197.066406" xlink:href="#DejaVuSans-55"/>
      <use x="1260.689453" xlink:href="#DejaVuSans-55"/>
      <use x="1324.3125" xlink:href="#DejaVuSans-41"/>
     </g>
    </g>
   </g>
  </g>
 </g>
 <defs>
  <clipPath id="pf83fccf833">
   <rect height="266.112" width="357.12" x="57.6" y="41.472"/>
  </clipPath>
 </defs>
</svg>
