<?xml version="1.0" encoding="utf-8" standalone="no"?>
<!DOCTYPE svg PUBLIC "-//W3C//DTD SVG 1.1//EN"
  "http://www.w3.org/Graphics/SVG/1.1/DTD/svg11.dtd">
<!-- Created with matplotlib (https://matplotlib.org/) -->
<svg height="345.6pt" version="1.1" viewBox="0 0 460.8 345.6" width="460.8pt" xmlns="http://www.w3.org/2000/svg" xmlns:xlink="http://www.w3.org/1999/xlink">
 <metadata>
  <rdf:RDF xmlns:cc="http://creativecommons.org/ns#" xmlns:dc="http://purl.org/dc/elements/1.1/" xmlns:rdf="http://www.w3.org/1999/02/22-rdf-syntax-ns#">
   <cc:Work>
    <dc:type rdf:resource="http://purl.org/dc/dcmitype/StillImage"/>
    <dc:date>2020-08-28T01:40:25.217481</dc:date>
    <dc:format>image/svg+xml</dc:format>
    <dc:creator>
     <cc:Agent>
      <dc:title>Matplotlib v3.3.1, https://matplotlib.org/</dc:title>
     </cc:Agent>
    </dc:creator>
   </cc:Work>
  </rdf:RDF>
 </metadata>
 <defs>
  <style type="text/css">*{stroke-linecap:butt;stroke-linejoin:round;}</style>
 </defs>
 <g id="figure_1">
  <g id="patch_1">
   <path d="M 0 345.6 
L 460.8 345.6 
L 460.8 0 
L 0 0 
z
" style="fill:#ffffff;"/>
  </g>
  <g id="axes_1">
   <g id="patch_2">
    <path d="M 57.6 307.584 
L 414.72 307.584 
L 414.72 41.472 
L 57.6 41.472 
z
" style="fill:#ffffff;"/>
   </g>
   <g id="matplotlib.axis_1">
    <g id="xtick_1">
     <g id="line2d_1">
      <defs>
       <path d="M 0 0 
L 0 3.5 
" id="m3492b5c3cd" style="stroke:#000000;stroke-width:0.8;"/>
      </defs>
      <g>
       <use style="stroke:#000000;stroke-width:0.8;" x="57.6" xlink:href="#m3492b5c3cd" y="307.584"/>
      </g>
     </g>
     <g id="text_1">
      <!-- 0.0 -->
      <g transform="translate(49.648438 322.182437)scale(0.1 -0.1)">
       <defs>
        <path d="M 31.78125 66.40625 
Q 24.171875 66.40625 20.328125 58.90625 
Q 16.5 51.421875 16.5 36.375 
Q 16.5 21.390625 20.328125 13.890625 
Q 24.171875 6.390625 31.78125 6.390625 
Q 39.453125 6.390625 43.28125 13.890625 
Q 47.125 21.390625 47.125 36.375 
Q 47.125 51.421875 43.28125 58.90625 
Q 39.453125 66.40625 31.78125 66.40625 
z
M 31.78125 74.21875 
Q 44.046875 74.21875 50.515625 64.515625 
Q 56.984375 54.828125 56.984375 36.375 
Q 56.984375 17.96875 50.515625 8.265625 
Q 44.046875 -1.421875 31.78125 -1.421875 
Q 19.53125 -1.421875 13.0625 8.265625 
Q 6.59375 17.96875 6.59375 36.375 
Q 6.59375 54.828125 13.0625 64.515625 
Q 19.53125 74.21875 31.78125 74.21875 
z
" id="DejaVuSans-48"/>
        <path d="M 10.6875 12.40625 
L 21 12.40625 
L 21 0 
L 10.6875 0 
z
" id="DejaVuSans-46"/>
       </defs>
       <use xlink:href="#DejaVuSans-48"/>
       <use x="63.623047" xlink:href="#DejaVuSans-46"/>
       <use x="95.410156" xlink:href="#DejaVuSans-48"/>
      </g>
     </g>
    </g>
    <g id="xtick_2">
     <g id="line2d_2">
      <g>
       <use style="stroke:#000000;stroke-width:0.8;" x="129.024" xlink:href="#m3492b5c3cd" y="307.584"/>
      </g>
     </g>
     <g id="text_2">
      <!-- 0.2 -->
      <g transform="translate(121.072438 322.182437)scale(0.1 -0.1)">
       <defs>
        <path d="M 19.1875 8.296875 
L 53.609375 8.296875 
L 53.609375 0 
L 7.328125 0 
L 7.328125 8.296875 
Q 12.9375 14.109375 22.625 23.890625 
Q 32.328125 33.6875 34.8125 36.53125 
Q 39.546875 41.84375 41.421875 45.53125 
Q 43.3125 49.21875 43.3125 52.78125 
Q 43.3125 58.59375 39.234375 62.25 
Q 35.15625 65.921875 28.609375 65.921875 
Q 23.96875 65.921875 18.8125 64.3125 
Q 13.671875 62.703125 7.8125 59.421875 
L 7.8125 69.390625 
Q 13.765625 71.78125 18.9375 73 
Q 24.125 74.21875 28.421875 74.21875 
Q 39.75 74.21875 46.484375 68.546875 
Q 53.21875 62.890625 53.21875 53.421875 
Q 53.21875 48.921875 51.53125 44.890625 
Q 49.859375 40.875 45.40625 35.40625 
Q 44.1875 33.984375 37.640625 27.21875 
Q 31.109375 20.453125 19.1875 8.296875 
z
" id="DejaVuSans-50"/>
       </defs>
       <use xlink:href="#DejaVuSans-48"/>
       <use x="63.623047" xlink:href="#DejaVuSans-46"/>
       <use x="95.410156" xlink:href="#DejaVuSans-50"/>
      </g>
     </g>
    </g>
    <g id="xtick_3">
     <g id="line2d_3">
      <g>
       <use style="stroke:#000000;stroke-width:0.8;" x="200.448" xlink:href="#m3492b5c3cd" y="307.584"/>
      </g>
     </g>
     <g id="text_3">
      <!-- 0.4 -->
      <g transform="translate(192.496438 322.182437)scale(0.1 -0.1)">
       <defs>
        <path d="M 37.796875 64.3125 
L 12.890625 25.390625 
L 37.796875 25.390625 
z
M 35.203125 72.90625 
L 47.609375 72.90625 
L 47.609375 25.390625 
L 58.015625 25.390625 
L 58.015625 17.1875 
L 47.609375 17.1875 
L 47.609375 0 
L 37.796875 0 
L 37.796875 17.1875 
L 4.890625 17.1875 
L 4.890625 26.703125 
z
" id="DejaVuSans-52"/>
       </defs>
       <use xlink:href="#DejaVuSans-48"/>
       <use x="63.623047" xlink:href="#DejaVuSans-46"/>
       <use x="95.410156" xlink:href="#DejaVuSans-52"/>
      </g>
     </g>
    </g>
    <g id="xtick_4">
     <g id="line2d_4">
      <g>
       <use style="stroke:#000000;stroke-width:0.8;" x="271.872" xlink:href="#m3492b5c3cd" y="307.584"/>
      </g>
     </g>
     <g id="text_4">
      <!-- 0.6 -->
      <g transform="translate(263.920438 322.182437)scale(0.1 -0.1)">
       <defs>
        <path d="M 33.015625 40.375 
Q 26.375 40.375 22.484375 35.828125 
Q 18.609375 31.296875 18.609375 23.390625 
Q 18.609375 15.53125 22.484375 10.953125 
Q 26.375 6.390625 33.015625 6.390625 
Q 39.65625 6.390625 43.53125 10.953125 
Q 47.40625 15.53125 47.40625 23.390625 
Q 47.40625 31.296875 43.53125 35.828125 
Q 39.65625 40.375 33.015625 40.375 
z
M 52.59375 71.296875 
L 52.59375 62.3125 
Q 48.875 64.0625 45.09375 64.984375 
Q 41.3125 65.921875 37.59375 65.921875 
Q 27.828125 65.921875 22.671875 59.328125 
Q 17.53125 52.734375 16.796875 39.40625 
Q 19.671875 43.65625 24.015625 45.921875 
Q 28.375 48.1875 33.59375 48.1875 
Q 44.578125 48.1875 50.953125 41.515625 
Q 57.328125 34.859375 57.328125 23.390625 
Q 57.328125 12.15625 50.6875 5.359375 
Q 44.046875 -1.421875 33.015625 -1.421875 
Q 20.359375 -1.421875 13.671875 8.265625 
Q 6.984375 17.96875 6.984375 36.375 
Q 6.984375 53.65625 15.1875 63.9375 
Q 23.390625 74.21875 37.203125 74.21875 
Q 40.921875 74.21875 44.703125 73.484375 
Q 48.484375 72.75 52.59375 71.296875 
z
" id="DejaVuSans-54"/>
       </defs>
       <use xlink:href="#DejaVuSans-48"/>
       <use x="63.623047" xlink:href="#DejaVuSans-46"/>
       <use x="95.410156" xlink:href="#DejaVuSans-54"/>
      </g>
     </g>
    </g>
    <g id="xtick_5">
     <g id="line2d_5">
      <g>
       <use style="stroke:#000000;stroke-width:0.8;" x="343.296" xlink:href="#m3492b5c3cd" y="307.584"/>
      </g>
     </g>
     <g id="text_5">
      <!-- 0.8 -->
      <g transform="translate(335.344438 322.182437)scale(0.1 -0.1)">
       <defs>
        <path d="M 31.78125 34.625 
Q 24.75 34.625 20.71875 30.859375 
Q 16.703125 27.09375 16.703125 20.515625 
Q 16.703125 13.921875 20.71875 10.15625 
Q 24.75 6.390625 31.78125 6.390625 
Q 38.8125 6.390625 42.859375 10.171875 
Q 46.921875 13.96875 46.921875 20.515625 
Q 46.921875 27.09375 42.890625 30.859375 
Q 38.875 34.625 31.78125 34.625 
z
M 21.921875 38.8125 
Q 15.578125 40.375 12.03125 44.71875 
Q 8.5 49.078125 8.5 55.328125 
Q 8.5 64.0625 14.71875 69.140625 
Q 20.953125 74.21875 31.78125 74.21875 
Q 42.671875 74.21875 48.875 69.140625 
Q 55.078125 64.0625 55.078125 55.328125 
Q 55.078125 49.078125 51.53125 44.71875 
Q 48 40.375 41.703125 38.8125 
Q 48.828125 37.15625 52.796875 32.3125 
Q 56.78125 27.484375 56.78125 20.515625 
Q 56.78125 9.90625 50.3125 4.234375 
Q 43.84375 -1.421875 31.78125 -1.421875 
Q 19.734375 -1.421875 13.25 4.234375 
Q 6.78125 9.90625 6.78125 20.515625 
Q 6.78125 27.484375 10.78125 32.3125 
Q 14.796875 37.15625 21.921875 38.8125 
z
M 18.3125 54.390625 
Q 18.3125 48.734375 21.84375 45.5625 
Q 25.390625 42.390625 31.78125 42.390625 
Q 38.140625 42.390625 41.71875 45.5625 
Q 45.3125 48.734375 45.3125 54.390625 
Q 45.3125 60.0625 41.71875 63.234375 
Q 38.140625 66.40625 31.78125 66.40625 
Q 25.390625 66.40625 21.84375 63.234375 
Q 18.3125 60.0625 18.3125 54.390625 
z
" id="DejaVuSans-56"/>
       </defs>
       <use xlink:href="#DejaVuSans-48"/>
       <use x="63.623047" xlink:href="#DejaVuSans-46"/>
       <use x="95.410156" xlink:href="#DejaVuSans-56"/>
      </g>
     </g>
    </g>
    <g id="xtick_6">
     <g id="line2d_6">
      <g>
       <use style="stroke:#000000;stroke-width:0.8;" x="414.72" xlink:href="#m3492b5c3cd" y="307.584"/>
      </g>
     </g>
     <g id="text_6">
      <!-- 1.0 -->
      <g transform="translate(406.768438 322.182437)scale(0.1 -0.1)">
       <defs>
        <path d="M 12.40625 8.296875 
L 28.515625 8.296875 
L 28.515625 63.921875 
L 10.984375 60.40625 
L 10.984375 69.390625 
L 28.421875 72.90625 
L 38.28125 72.90625 
L 38.28125 8.296875 
L 54.390625 8.296875 
L 54.390625 0 
L 12.40625 0 
z
" id="DejaVuSans-49"/>
       </defs>
       <use xlink:href="#DejaVuSans-49"/>
       <use x="63.623047" xlink:href="#DejaVuSans-46"/>
       <use x="95.410156" xlink:href="#DejaVuSans-48"/>
      </g>
     </g>
    </g>
    <g id="text_7">
     <!-- Recall -->
     <g transform="translate(221.242812 335.860562)scale(0.1 -0.1)">
      <defs>
       <path d="M 44.390625 34.1875 
Q 47.5625 33.109375 50.5625 29.59375 
Q 53.5625 26.078125 56.59375 19.921875 
L 66.609375 0 
L 56 0 
L 46.6875 18.703125 
Q 43.0625 26.03125 39.671875 28.421875 
Q 36.28125 30.8125 30.421875 30.8125 
L 19.671875 30.8125 
L 19.671875 0 
L 9.8125 0 
L 9.8125 72.90625 
L 32.078125 72.90625 
Q 44.578125 72.90625 50.734375 67.671875 
Q 56.890625 62.453125 56.890625 51.90625 
Q 56.890625 45.015625 53.6875 40.46875 
Q 50.484375 35.9375 44.390625 34.1875 
z
M 19.671875 64.796875 
L 19.671875 38.921875 
L 32.078125 38.921875 
Q 39.203125 38.921875 42.84375 42.21875 
Q 46.484375 45.515625 46.484375 51.90625 
Q 46.484375 58.296875 42.84375 61.546875 
Q 39.203125 64.796875 32.078125 64.796875 
z
" id="DejaVuSans-82"/>
       <path d="M 56.203125 29.59375 
L 56.203125 25.203125 
L 14.890625 25.203125 
Q 15.484375 15.921875 20.484375 11.0625 
Q 25.484375 6.203125 34.421875 6.203125 
Q 39.59375 6.203125 44.453125 7.46875 
Q 49.3125 8.734375 54.109375 11.28125 
L 54.109375 2.78125 
Q 49.265625 0.734375 44.1875 -0.34375 
Q 39.109375 -1.421875 33.890625 -1.421875 
Q 20.796875 -1.421875 13.15625 6.1875 
Q 5.515625 13.8125 5.515625 26.8125 
Q 5.515625 40.234375 12.765625 48.109375 
Q 20.015625 56 32.328125 56 
Q 43.359375 56 49.78125 48.890625 
Q 56.203125 41.796875 56.203125 29.59375 
z
M 47.21875 32.234375 
Q 47.125 39.59375 43.09375 43.984375 
Q 39.0625 48.390625 32.421875 48.390625 
Q 24.90625 48.390625 20.390625 44.140625 
Q 15.875 39.890625 15.1875 32.171875 
z
" id="DejaVuSans-101"/>
       <path d="M 48.78125 52.59375 
L 48.78125 44.1875 
Q 44.96875 46.296875 41.140625 47.34375 
Q 37.3125 48.390625 33.40625 48.390625 
Q 24.65625 48.390625 19.8125 42.84375 
Q 14.984375 37.3125 14.984375 27.296875 
Q 14.984375 17.28125 19.8125 11.734375 
Q 24.65625 6.203125 33.40625 6.203125 
Q 37.3125 6.203125 41.140625 7.25 
Q 44.96875 8.296875 48.78125 10.40625 
L 48.78125 2.09375 
Q 45.015625 0.34375 40.984375 -0.53125 
Q 36.96875 -1.421875 32.421875 -1.421875 
Q 20.0625 -1.421875 12.78125 6.34375 
Q 5.515625 14.109375 5.515625 27.296875 
Q 5.515625 40.671875 12.859375 48.328125 
Q 20.21875 56 33.015625 56 
Q 37.15625 56 41.109375 55.140625 
Q 45.0625 54.296875 48.78125 52.59375 
z
" id="DejaVuSans-99"/>
       <path d="M 34.28125 27.484375 
Q 23.390625 27.484375 19.1875 25 
Q 14.984375 22.515625 14.984375 16.5 
Q 14.984375 11.71875 18.140625 8.90625 
Q 21.296875 6.109375 26.703125 6.109375 
Q 34.1875 6.109375 38.703125 11.40625 
Q 43.21875 16.703125 43.21875 25.484375 
L 43.21875 27.484375 
z
M 52.203125 31.203125 
L 52.203125 0 
L 43.21875 0 
L 43.21875 8.296875 
Q 40.140625 3.328125 35.546875 0.953125 
Q 30.953125 -1.421875 24.3125 -1.421875 
Q 15.921875 -1.421875 10.953125 3.296875 
Q 6 8.015625 6 15.921875 
Q 6 25.140625 12.171875 29.828125 
Q 18.359375 34.515625 30.609375 34.515625 
L 43.21875 34.515625 
L 43.21875 35.40625 
Q 43.21875 41.609375 39.140625 45 
Q 35.0625 48.390625 27.6875 48.390625 
Q 23 48.390625 18.546875 47.265625 
Q 14.109375 46.140625 10.015625 43.890625 
L 10.015625 52.203125 
Q 14.9375 54.109375 19.578125 55.046875 
Q 24.21875 56 28.609375 56 
Q 40.484375 56 46.34375 49.84375 
Q 52.203125 43.703125 52.203125 31.203125 
z
" id="DejaVuSans-97"/>
       <path d="M 9.421875 75.984375 
L 18.40625 75.984375 
L 18.40625 0 
L 9.421875 0 
z
" id="DejaVuSans-108"/>
      </defs>
      <use xlink:href="#DejaVuSans-82"/>
      <use x="64.982422" xlink:href="#DejaVuSans-101"/>
      <use x="126.505859" xlink:href="#DejaVuSans-99"/>
      <use x="181.486328" xlink:href="#DejaVuSans-97"/>
      <use x="242.765625" xlink:href="#DejaVuSans-108"/>
      <use x="270.548828" xlink:href="#DejaVuSans-108"/>
     </g>
    </g>
   </g>
   <g id="matplotlib.axis_2">
    <g id="ytick_1">
     <g id="line2d_7">
      <defs>
       <path d="M 0 0 
L -3.5 0 
" id="mef1d5521c1" style="stroke:#000000;stroke-width:0.8;"/>
      </defs>
      <g>
       <use style="stroke:#000000;stroke-width:0.8;" x="57.6" xlink:href="#mef1d5521c1" y="307.584"/>
      </g>
     </g>
     <g id="text_8">
      <!-- 0.0 -->
      <g transform="translate(34.696875 311.383219)scale(0.1 -0.1)">
       <use xlink:href="#DejaVuSans-48"/>
       <use x="63.623047" xlink:href="#DejaVuSans-46"/>
       <use x="95.410156" xlink:href="#DejaVuSans-48"/>
      </g>
     </g>
    </g>
    <g id="ytick_2">
     <g id="line2d_8">
      <g>
       <use style="stroke:#000000;stroke-width:0.8;" x="57.6" xlink:href="#mef1d5521c1" y="256.896"/>
      </g>
     </g>
     <g id="text_9">
      <!-- 0.2 -->
      <g transform="translate(34.696875 260.695219)scale(0.1 -0.1)">
       <use xlink:href="#DejaVuSans-48"/>
       <use x="63.623047" xlink:href="#DejaVuSans-46"/>
       <use x="95.410156" xlink:href="#DejaVuSans-50"/>
      </g>
     </g>
    </g>
    <g id="ytick_3">
     <g id="line2d_9">
      <g>
       <use style="stroke:#000000;stroke-width:0.8;" x="57.6" xlink:href="#mef1d5521c1" y="206.208"/>
      </g>
     </g>
     <g id="text_10">
      <!-- 0.4 -->
      <g transform="translate(34.696875 210.007219)scale(0.1 -0.1)">
       <use xlink:href="#DejaVuSans-48"/>
       <use x="63.623047" xlink:href="#DejaVuSans-46"/>
       <use x="95.410156" xlink:href="#DejaVuSans-52"/>
      </g>
     </g>
    </g>
    <g id="ytick_4">
     <g id="line2d_10">
      <g>
       <use style="stroke:#000000;stroke-width:0.8;" x="57.6" xlink:href="#mef1d5521c1" y="155.52"/>
      </g>
     </g>
     <g id="text_11">
      <!-- 0.6 -->
      <g transform="translate(34.696875 159.319219)scale(0.1 -0.1)">
       <use xlink:href="#DejaVuSans-48"/>
       <use x="63.623047" xlink:href="#DejaVuSans-46"/>
       <use x="95.410156" xlink:href="#DejaVuSans-54"/>
      </g>
     </g>
    </g>
    <g id="ytick_5">
     <g id="line2d_11">
      <g>
       <use style="stroke:#000000;stroke-width:0.8;" x="57.6" xlink:href="#mef1d5521c1" y="104.832"/>
      </g>
     </g>
     <g id="text_12">
      <!-- 0.8 -->
      <g transform="translate(34.696875 108.631219)scale(0.1 -0.1)">
       <use xlink:href="#DejaVuSans-48"/>
       <use x="63.623047" xlink:href="#DejaVuSans-46"/>
       <use x="95.410156" xlink:href="#DejaVuSans-56"/>
      </g>
     </g>
    </g>
    <g id="ytick_6">
     <g id="line2d_12">
      <g>
       <use style="stroke:#000000;stroke-width:0.8;" x="57.6" xlink:href="#mef1d5521c1" y="54.144"/>
      </g>
     </g>
     <g id="text_13">
      <!-- 1.0 -->
      <g transform="translate(34.696875 57.943219)scale(0.1 -0.1)">
       <use xlink:href="#DejaVuSans-49"/>
       <use x="63.623047" xlink:href="#DejaVuSans-46"/>
       <use x="95.410156" xlink:href="#DejaVuSans-48"/>
      </g>
     </g>
    </g>
    <g id="text_14">
     <!-- Precision -->
     <g transform="translate(28.617187 196.835031)rotate(-90)scale(0.1 -0.1)">
      <defs>
       <path d="M 19.671875 64.796875 
L 19.671875 37.40625 
L 32.078125 37.40625 
Q 38.96875 37.40625 42.71875 40.96875 
Q 46.484375 44.53125 46.484375 51.125 
Q 46.484375 57.671875 42.71875 61.234375 
Q 38.96875 64.796875 32.078125 64.796875 
z
M 9.8125 72.90625 
L 32.078125 72.90625 
Q 44.34375 72.90625 50.609375 67.359375 
Q 56.890625 61.8125 56.890625 51.125 
Q 56.890625 40.328125 50.609375 34.8125 
Q 44.34375 29.296875 32.078125 29.296875 
L 19.671875 29.296875 
L 19.671875 0 
L 9.8125 0 
z
" id="DejaVuSans-80"/>
       <path d="M 41.109375 46.296875 
Q 39.59375 47.171875 37.8125 47.578125 
Q 36.03125 48 33.890625 48 
Q 26.265625 48 22.1875 43.046875 
Q 18.109375 38.09375 18.109375 28.8125 
L 18.109375 0 
L 9.078125 0 
L 9.078125 54.6875 
L 18.109375 54.6875 
L 18.109375 46.1875 
Q 20.953125 51.171875 25.484375 53.578125 
Q 30.03125 56 36.53125 56 
Q 37.453125 56 38.578125 55.875 
Q 39.703125 55.765625 41.0625 55.515625 
z
" id="DejaVuSans-114"/>
       <path d="M 9.421875 54.6875 
L 18.40625 54.6875 
L 18.40625 0 
L 9.421875 0 
z
M 9.421875 75.984375 
L 18.40625 75.984375 
L 18.40625 64.59375 
L 9.421875 64.59375 
z
" id="DejaVuSans-105"/>
       <path d="M 44.28125 53.078125 
L 44.28125 44.578125 
Q 40.484375 46.53125 36.375 47.5 
Q 32.28125 48.484375 27.875 48.484375 
Q 21.1875 48.484375 17.84375 46.4375 
Q 14.5 44.390625 14.5 40.28125 
Q 14.5 37.15625 16.890625 35.375 
Q 19.28125 33.59375 26.515625 31.984375 
L 29.59375 31.296875 
Q 39.15625 29.25 43.1875 25.515625 
Q 47.21875 21.78125 47.21875 15.09375 
Q 47.21875 7.46875 41.1875 3.015625 
Q 35.15625 -1.421875 24.609375 -1.421875 
Q 20.21875 -1.421875 15.453125 -0.5625 
Q 10.6875 0.296875 5.421875 2 
L 5.421875 11.28125 
Q 10.40625 8.6875 15.234375 7.390625 
Q 20.0625 6.109375 24.8125 6.109375 
Q 31.15625 6.109375 34.5625 8.28125 
Q 37.984375 10.453125 37.984375 14.40625 
Q 37.984375 18.0625 35.515625 20.015625 
Q 33.0625 21.96875 24.703125 23.78125 
L 21.578125 24.515625 
Q 13.234375 26.265625 9.515625 29.90625 
Q 5.8125 33.546875 5.8125 39.890625 
Q 5.8125 47.609375 11.28125 51.796875 
Q 16.75 56 26.8125 56 
Q 31.78125 56 36.171875 55.265625 
Q 40.578125 54.546875 44.28125 53.078125 
z
" id="DejaVuSans-115"/>
       <path d="M 30.609375 48.390625 
Q 23.390625 48.390625 19.1875 42.75 
Q 14.984375 37.109375 14.984375 27.296875 
Q 14.984375 17.484375 19.15625 11.84375 
Q 23.34375 6.203125 30.609375 6.203125 
Q 37.796875 6.203125 41.984375 11.859375 
Q 46.1875 17.53125 46.1875 27.296875 
Q 46.1875 37.015625 41.984375 42.703125 
Q 37.796875 48.390625 30.609375 48.390625 
z
M 30.609375 56 
Q 42.328125 56 49.015625 48.375 
Q 55.71875 40.765625 55.71875 27.296875 
Q 55.71875 13.875 49.015625 6.21875 
Q 42.328125 -1.421875 30.609375 -1.421875 
Q 18.84375 -1.421875 12.171875 6.21875 
Q 5.515625 13.875 5.515625 27.296875 
Q 5.515625 40.765625 12.171875 48.375 
Q 18.84375 56 30.609375 56 
z
" id="DejaVuSans-111"/>
       <path d="M 54.890625 33.015625 
L 54.890625 0 
L 45.90625 0 
L 45.90625 32.71875 
Q 45.90625 40.484375 42.875 44.328125 
Q 39.84375 48.1875 33.796875 48.1875 
Q 26.515625 48.1875 22.3125 43.546875 
Q 18.109375 38.921875 18.109375 30.90625 
L 18.109375 0 
L 9.078125 0 
L 9.078125 54.6875 
L 18.109375 54.6875 
L 18.109375 46.1875 
Q 21.34375 51.125 25.703125 53.5625 
Q 30.078125 56 35.796875 56 
Q 45.21875 56 50.046875 50.171875 
Q 54.890625 44.34375 54.890625 33.015625 
z
" id="DejaVuSans-110"/>
      </defs>
      <use xlink:href="#DejaVuSans-80"/>
      <use x="58.552734" xlink:href="#DejaVuSans-114"/>
      <use x="97.416016" xlink:href="#DejaVuSans-101"/>
      <use x="158.939453" xlink:href="#DejaVuSans-99"/>
      <use x="213.919922" xlink:href="#DejaVuSans-105"/>
      <use x="241.703125" xlink:href="#DejaVuSans-115"/>
      <use x="293.802734" xlink:href="#DejaVuSans-105"/>
      <use x="321.585938" xlink:href="#DejaVuSans-111"/>
      <use x="382.767578" xlink:href="#DejaVuSans-110"/>
     </g>
    </g>
   </g>
   <g id="line2d_13">
    <path clip-path="url(#p9dcf073d0b)" d="M 414.72 274.423626 
L 410.468571 274.767276 
L 410.468571 274.664563 
L 410.468571 274.404946 
L 406.217143 274.75291 
L 406.217143 274.648849 
L 406.217143 274.596571 
L 401.965714 274.947052 
L 401.965714 274.842947 
L 401.965714 274.790645 
L 397.714286 275.14368 
L 397.714286 275.039538 
L 397.714286 274.882065 
L 393.462857 275.238669 
L 393.462857 275.133822 
L 393.462857 275.081143 
L 389.211429 275.44039 
L 389.211429 275.335517 
L 389.211429 275.016751 
L 384.96 275.381228 
L 384.96 275.274596 
L 384.96 274.395429 
L 380.708571 274.770644 
L 380.708571 274.714648 
L 380.708571 274.488742 
L 372.205714 275.192705 
L 372.205714 275.136664 
L 367.954286 275.464 
L 367.954286 275.408139 
L 367.954286 274.72233 
L 363.702857 275.114819 
L 363.702857 275.056941 
L 363.702857 274.882065 
L 359.451429 275.278363 
L 359.451429 275.220259 
L 359.451429 274.926577 
L 350.948571 275.730885 
L 350.948571 275.672759 
L 350.948571 274.958328 
L 346.697143 275.371065 
L 346.697143 275.310742 
L 346.697143 274.568828 
L 342.445714 274.991908 
L 342.445714 274.929231 
L 342.445714 274.866312 
L 338.194286 275.292417 
L 338.194286 275.229957 
L 338.194286 274.914 
L 333.942857 275.346035 
L 333.942857 275.282824 
L 333.942857 274.437924 
L 329.691429 274.882065 
L 329.691429 274.816 
L 329.691429 274.140371 
L 325.44 274.594909 
L 325.44 274.526609 
L 325.44 274.18082 
L 321.188571 274.642113 
L 321.188571 274.572908 
L 321.188571 273.498794 
L 312.685714 274.454588 
L 312.685714 274.382253 
L 312.685714 274.163341 
L 299.931429 275.55278 
L 299.931429 274.677212 
L 291.428571 275.686517 
L 291.428571 275.613358 
L 291.428571 274.939504 
L 287.177143 275.457803 
L 287.177143 275.382212 
L 287.177143 275.153289 
L 282.925714 275.678252 
L 282.925714 275.602286 
L 282.925714 274.822244 
L 270.171429 276.372177 
L 270.171429 274.584 
L 265.92 275.159561 
L 265.92 275.074681 
L 265.92 274.817351 
L 257.417143 275.988032 
L 257.417143 275.904 
L 257.417143 275.39027 
L 248.914286 276.592696 
L 248.914286 276.508251 
L 248.914286 275.637782 
L 244.662857 276.259955 
L 244.662857 276.171718 
L 244.662857 275.813744 
L 231.908571 277.72469 
L 231.908571 277.63864 
L 231.908571 274.064516 
L 227.657143 274.776233 
L 227.657143 274.669714 
L 227.657143 274.015788 
L 223.405714 274.746259 
L 223.405714 274.6368 
L 223.405714 273.264 
L 219.154286 274.027484 
L 219.154286 273.673014 
L 214.902857 274.448735 
L 214.902857 272.463101 
L 206.4 274.110792 
L 206.4 271.080296 
L 202.148571 271.976727 
L 202.148571 271.529774 
L 197.897143 272.44316 
L 197.897143 266.180436 
L 193.645714 267.235343 
L 193.645714 266.829829 
L 189.394286 267.904 
L 189.394286 267.702579 
L 185.142857 268.792163 
L 185.142857 268.593231 
L 180.891429 269.698639 
L 180.891429 267.855568 
L 176.64 269.017043 
L 176.64 267.939754 
L 172.388571 269.140854 
L 172.388571 268.923661 
L 163.885714 271.378286 
L 163.885714 268.949854 
L 159.634286 270.267681 
L 159.634286 268.341677 
L 151.131429 271.141647 
L 151.131429 270.163329 
L 142.628571 273.102367 
L 142.628571 272.866192 
L 138.377143 274.374621 
L 138.377143 272.690087 
L 134.125714 274.285314 
L 134.125714 274.040471 
L 129.874286 275.669333 
L 129.874286 273.389714 
L 125.622857 275.14368 
L 125.622857 272.925538 
L 117.12 276.730435 
L 117.12 276.184354 
L 108.617143 280.185081 
L 108.617143 276.864 
L 104.365714 279.136653 
L 104.365714 277.281391 
L 100.114286 279.733451 
L 100.114286 278.784 
L 95.862857 281.366069 
L 95.862857 278.711089 
L 91.611429 281.590154 
L 91.611429 278.619429 
L 87.36 281.872696 
L 87.36 280.290462 
L 83.108571 283.824 
L 83.108571 282.24 
L 78.857143 286.106034 
L 78.857143 283.674566 
L 74.605714 288.088615 
L 70.354286 292.675765 
L 70.354286 292.067265 
L 66.102857 297.024 
L 66.102857 292.675765 
L 61.851429 299.904 
L 61.851429 296.56487 
L 57.6 307.584 
L 57.6 307.584 
L 57.6 54.144 
L 57.6 54.144 
" style="fill:none;stroke:#ff0000;stroke-linecap:square;stroke-width:2;"/>
   </g>
   <g id="line2d_14">
    <path clip-path="url(#p9dcf073d0b)" d="M 414.72 270.430492 
L 410.468571 270.808615 
L 410.468571 270.74421 
L 410.468571 270.484317 
L 406.217143 270.866544 
L 406.217143 270.801558 
L 406.217143 269.660496 
L 401.965714 270.054494 
L 401.965714 269.985758 
L 401.965714 269.70828 
L 397.714286 270.106736 
L 397.714286 270.037333 
L 397.714286 267.593467 
L 393.462857 268.015304 
L 393.462857 267.93695 
L 393.462857 267.054121 
L 389.211429 267.485988 
L 389.211429 267.404488 
L 389.211429 266.655801 
L 384.96 267.096697 
L 384.96 267.012524 
L 384.96 263.332571 
L 380.708571 263.808 
L 380.708571 263.708282 
L 380.708571 263.507478 
L 376.457143 263.98767 
L 376.457143 263.887448 
L 376.457143 263.685617 
L 372.205714 264.170667 
L 372.205714 264.06994 
L 372.205714 263.867077 
L 367.954286 264.357084 
L 367.954286 264.25585 
L 367.954286 263.216806 
L 363.702857 263.719385 
L 363.702857 263.613687 
L 363.702857 263.400755 
L 359.451429 263.90866 
L 359.451429 263.802394 
L 359.451429 263.588303 
L 355.2 264.101647 
L 355.2 263.994811 
L 355.2 263.452657 
L 350.948571 263.974623 
L 350.948571 263.8656 
L 350.948571 262.744615 
L 346.697143 263.280864 
L 346.697143 262.704 
L 342.445714 263.248543 
L 342.445714 261.062137 
L 333.942857 262.202182 
L 333.942857 262.076818 
L 329.691429 262.652809 
L 329.691429 261.764339 
L 325.44 262.352499 
L 325.44 261.570398 
L 321.188571 262.169896 
L 321.188571 261.095006 
L 316.937143 261.709104 
L 316.937143 261.297054 
L 308.434286 262.544964 
L 308.434286 261.856294 
L 304.182857 262.493448 
L 304.182857 260.620677 
L 299.931429 261.282462 
L 299.931429 259.907168 
L 295.68 260.588503 
L 295.68 258.132293 
L 291.428571 258.845538 
L 291.428571 258.674526 
L 287.177143 259.394704 
L 287.177143 258.531097 
L 282.925714 259.266302 
L 282.925714 257.086556 
L 278.674286 257.852377 
L 278.674286 256.896 
L 274.422857 257.678826 
L 274.422857 255.041561 
L 270.171429 255.861551 
L 270.171429 253.660596 
L 265.92 254.513231 
L 265.92 250.878247 
L 261.668571 251.780697 
L 261.668571 250.470761 
L 257.417143 251.39683 
L 257.417143 251.13054 
L 253.165714 252.068571 
L 253.165714 251.802947 
L 248.914286 252.753231 
L 248.914286 252.488348 
L 244.662857 253.451184 
L 244.662857 250.397538 
L 240.411429 251.409155 
L 240.411429 251.118093 
L 231.908571 253.180649 
L 231.908571 252.894316 
L 227.657143 253.945905 
L 227.657143 253.660596 
L 219.154286 255.805935 
L 219.154286 255.24313 
L 214.902857 256.342033 
L 214.902857 255.775823 
L 210.651429 256.896 
L 210.651429 255.148138 
L 206.4 256.310012 
L 206.4 253.164368 
L 202.148571 254.392889 
L 202.148571 251.629714 
L 197.897143 252.920471 
L 197.897143 250.299616 
L 189.394286 253.024 
L 189.394286 251.863149 
L 180.891429 254.708029 
L 180.891429 253.936117 
L 176.64 255.405176 
L 176.64 255.018667 
L 168.137143 258.039338 
L 168.137143 256.50307 
L 163.885714 258.084 
L 163.885714 257.694236 
L 155.382857 260.95104 
L 155.382857 258.184678 
L 151.131429 259.928615 
L 151.131429 253.971692 
L 142.628571 257.889882 
L 142.628571 256.384 
L 138.377143 258.447673 
L 138.377143 255.805935 
L 129.874286 260.238066 
L 125.622857 262.528 
L 125.622857 262.021753 
L 117.12 266.800552 
L 117.12 266.326326 
L 112.868571 268.822588 
L 112.868571 264.795429 
L 104.365714 270.4128 
L 104.365714 268.864 
L 100.114286 271.888225 
L 100.114286 262.326857 
L 91.611429 270.037333 
L 91.611429 265.344 
L 87.36 269.837617 
L 87.36 268.16 
L 83.108571 273.024 
L 83.108571 272.220279 
L 78.857143 277.412571 
L 78.857143 274.236632 
L 74.605714 280.185081 
L 74.605714 275.904 
L 70.354286 283.057548 
L 66.102857 290.688 
L 66.102857 279.424 
L 61.851429 292.675765 
L 61.851429 271.378286 
L 57.6 307.584 
L 57.6 307.584 
L 57.6 54.144 
L 57.6 54.144 
" style="fill:none;stroke:#008000;stroke-linecap:square;stroke-width:2;"/>
   </g>
   <g id="line2d_15">
    <path clip-path="url(#p9dcf073d0b)" d="M 414.72 262.039814 
L 410.518588 262.480271 
L 410.518588 262.38451 
L 410.518588 261.80129 
L 406.317176 262.248828 
L 406.317176 262.150911 
L 406.317176 260.942049 
L 402.115765 261.4016 
L 402.115765 261.298744 
L 402.115765 259.477333 
L 397.914353 259.953745 
L 397.914353 259.842977 
L 397.914353 257.87785 
L 393.712941 258.37235 
L 393.712941 256.641286 
L 385.310118 257.410599 
L 385.310118 254.156108 
L 381.108706 254.698146 
L 381.108706 253.526161 
L 376.907294 254.08 
L 376.907294 253.326423 
L 368.504471 254.454935 
L 368.504471 253.999543 
L 364.303059 254.572195 
L 364.303059 254.112555 
L 360.101647 254.692174 
L 360.101647 252.950228 
L 355.900235 253.547243 
L 355.900235 250.094415 
L 347.497412 251.354547 
L 347.497412 250.621915 
L 343.296 251.264 
L 343.296 250.893474 
L 334.893176 252.19645 
L 334.893176 251.452993 
L 330.691765 252.117333 
L 330.691765 250.581924 
L 326.490353 251.264 
L 326.490353 250.268947 
L 322.288941 250.964426 
L 322.288941 250.762932 
L 318.087529 251.465143 
L 318.087529 250.651826 
L 313.886118 251.3664 
L 313.886118 251.161226 
L 309.684706 251.882901 
L 309.684706 249.984 
L 305.483294 250.728639 
L 305.483294 249.850564 
L 301.281882 250.609116 
L 301.281882 248.78592 
L 297.080471 249.333677 
L 297.080471 248.135111 
L 292.879059 248.936727 
L 292.879059 248.448 
L 288.677647 249.260987 
L 288.677647 247.501241 
L 284.476235 248.338286 
L 284.476235 248.080696 
L 280.274824 248.927581 
L 280.274824 247.078054 
L 276.073412 247.951059 
L 276.073412 243.608854 
L 271.872 244.533073 
L 271.872 244.224 
L 267.670588 245.160355 
L 267.670588 244.539224 
L 259.267765 246.452744 
L 259.267765 246.144 
L 255.066353 247.118619 
L 255.066353 246.810122 
L 250.864941 247.798154 
L 250.864941 245.572085 
L 246.663529 246.595765 
L 246.663529 243.51209 
L 242.462118 244.581966 
L 242.462118 243.861943 
L 238.260706 244.952276 
L 238.260706 242.326994 
L 234.059294 243.460627 
L 234.059294 241.877333 
L 229.857882 243.043379 
L 229.857882 240.545032 
L 225.656471 241.755429 
L 225.656471 237.669517 
L 221.455059 238.944 
L 221.455059 235.959652 
L 217.253647 237.286774 
L 217.253647 236.769882 
L 213.052235 237.604299 
L 204.649412 240.384 
L 204.649412 237.738331 
L 192.045176 242.180129 
L 192.045176 241.107934 
L 187.843765 242.653091 
L 187.843765 242.112 
L 179.440941 245.297898 
L 179.440941 244.765538 
L 175.239529 246.408828 
L 175.239529 240 
L 171.038118 241.787077 
L 171.038118 233.20487 
L 166.836706 235.172571 
L 166.836706 230.061176 
L 162.635294 232.155429 
L 162.635294 228.384 
L 154.232471 232.851692 
L 154.232471 226.624 
L 150.031059 229.053296 
L 150.031059 226.777043 
L 145.829647 229.315765 
L 145.829647 223.104 
L 141.628235 225.829161 
L 141.628235 220.190897 
L 137.426824 223.104 
L 137.426824 220.032 
L 133.225412 223.104 
L 133.225412 219.854769 
L 129.024 223.104 
L 129.024 221.4144 
L 124.822588 224.828082 
L 124.822588 219.430957 
L 120.621176 223.104 
L 120.621176 214.862049 
L 116.419765 218.88 
L 112.218353 223.104 
L 112.218353 220.880842 
L 108.016941 225.387243 
L 108.016941 220.690286 
L 103.815529 225.588706 
L 99.614118 230.784 
L 99.614118 223.104 
L 95.412706 226.121143 
L 91.211294 232.490667 
L 87.009882 239.350154 
L 82.808471 246.7584 
L 78.607059 254.784 
L 74.405647 263.507478 
L 74.405647 261.504 
L 70.204235 271.378286 
L 70.204235 262.859294 
L 66.002824 275.904 
L 66.002824 273.792 
L 61.801412 289.481143 
L 61.801412 282.24 
L 57.6 307.584 
L 57.6 307.584 
L 57.6 54.144 
L 57.6 54.144 
" style="fill:none;stroke:#0000ff;stroke-linecap:square;stroke-width:2;"/>
   </g>
   <g id="line2d_16">
    <path clip-path="url(#p9dcf073d0b)" d="M 414.72 272.220279 
L 410.468571 272.583135 
L 410.468571 272.5248 
L 410.468571 266.499 
L 406.217143 266.914568 
L 406.217143 266.834824 
L 406.217143 249.856 
L 401.965714 250.401159 
L 401.965714 249.593492 
L 393.462857 250.704 
L 393.462857 248.172249 
L 389.211429 248.749714 
L 389.211429 247.860979 
L 384.96 248.448 
L 384.96 247.722405 
L 380.708571 248.318031 
L 380.708571 246.436571 
L 376.457143 247.048968 
L 376.457143 246.069437 
L 372.205714 246.692571 
L 372.205714 243.79298 
L 367.954286 244.440246 
L 367.954286 244.006268 
L 359.451429 245.320194 
L 359.451429 243.547559 
L 355.2 244.224 
L 355.2 243.996903 
L 350.948571 244.679827 
L 350.948571 242.332657 
L 346.697143 243.037483 
L 346.697143 242.55034 
L 338.194286 243.983087 
L 338.194286 240.942406 
L 333.942857 241.6896 
L 333.942857 240.618146 
L 329.691429 241.379265 
L 329.691429 240.280432 
L 325.44 241.056 
L 325.44 240.77764 
L 316.937143 242.352608 
L 316.937143 240.367304 
L 312.685714 241.180507 
L 312.685714 240.595454 
L 304.182857 242.2528 
L 304.182857 239.844276 
L 295.68 241.571721 
L 295.68 240 
L 291.428571 240.889263 
L 291.428571 238.578059 
L 287.177143 239.495642 
L 287.177143 237.758694 
L 282.925714 238.700308 
L 282.925714 236.887579 
L 278.674286 237.854476 
L 278.674286 237.483574 
L 274.422857 238.464 
L 274.422857 237.337043 
L 270.171429 238.338098 
L 270.171429 236.392989 
L 265.92 237.422644 
L 265.92 236.212966 
L 261.668571 237.265387 
L 261.668571 236.024471 
L 253.165714 238.189714 
L 253.165714 236.497171 
L 248.914286 237.615902 
L 248.914286 233.042824 
L 244.662857 234.219789 
L 244.662857 233.733934 
L 240.411429 234.9312 
L 240.411429 233.949405 
L 223.405714 238.944 
L 214.902857 241.546817 
L 214.902857 240.121554 
L 210.651429 241.469217 
L 210.651429 240.986628 
L 202.148571 243.754667 
L 202.148571 243.278328 
L 193.645714 246.144 
L 193.645714 243.218286 
L 185.142857 246.267871 
L 185.142857 245.769366 
L 172.388571 250.56 
L 172.388571 248.593655 
L 168.137143 250.284522 
L 168.137143 248.749714 
L 163.885714 250.502919 
L 163.885714 247.241143 
L 159.634286 249.097846 
L 159.634286 247.360634 
L 151.131429 251.264 
L 151.131429 249.504 
L 146.88 251.560421 
L 146.88 250.355613 
L 142.628571 252.488348 
L 142.628571 251.264 
L 138.377143 253.478831 
L 138.377143 252.864 
L 134.125714 255.148138 
L 134.125714 251.950829 
L 129.874286 254.392889 
L 129.874286 251.629714 
L 125.622857 254.228211 
L 125.622857 252.035507 
L 121.371429 254.784 
L 121.371429 239.698286 
L 117.12 243.072 
L 117.12 241.877333 
L 112.868571 245.419472 
L 112.868571 238.944 
L 108.617143 242.875915 
L 108.617143 229.602462 
L 104.365714 234.219789 
L 104.365714 232.236973 
L 100.114286 237.184 
L 100.114286 235.172571 
L 95.862857 240.496941 
L 95.862857 238.464 
L 91.611429 244.224 
L 91.611429 226.4832 
L 87.36 233.664 
L 87.36 209.024 
L 83.108571 218.134588 
L 83.108571 206.208 
L 78.857143 217.069714 
L 78.857143 210.107077 
L 74.605714 223.104 
L 74.605714 194.944 
L 70.354286 212.544 
L 66.102857 235.172571 
L 66.102857 223.104 
L 61.851429 256.896 
L 61.851429 54.144 
L 57.6 54.144 
L 57.6 54.144 
" style="fill:none;stroke:#ffa500;stroke-linecap:square;stroke-width:2;"/>
   </g>
   <g id="line2d_17">
    <path clip-path="url(#p9dcf073d0b)" d="M 57.6 277.1712 
L 414.72 277.1712 
" style="fill:none;stroke:#000080;stroke-dasharray:7.4,3.2;stroke-dashoffset:0;stroke-width:2;"/>
   </g>
   <g id="patch_3">
    <path d="M 57.6 307.584 
L 57.6 41.472 
" style="fill:none;stroke:#000000;stroke-linecap:square;stroke-linejoin:miter;stroke-width:0.8;"/>
   </g>
   <g id="patch_4">
    <path d="M 414.72 307.584 
L 414.72 41.472 
" style="fill:none;stroke:#000000;stroke-linecap:square;stroke-linejoin:miter;stroke-width:0.8;"/>
   </g>
   <g id="patch_5">
    <path d="M 57.6 307.584 
L 414.72 307.584 
" style="fill:none;stroke:#000000;stroke-linecap:square;stroke-linejoin:miter;stroke-width:0.8;"/>
   </g>
   <g id="patch_6">
    <path d="M 57.6 41.472 
L 414.72 41.472 
" style="fill:none;stroke:#000000;stroke-linecap:square;stroke-linejoin:miter;stroke-width:0.8;"/>
   </g>
   <g id="text_15">
    <!-- PR curve example -->
    <g transform="translate(181.920938 35.472)scale(0.12 -0.12)">
     <defs>
      <path id="DejaVuSans-32"/>
      <path d="M 8.5 21.578125 
L 8.5 54.6875 
L 17.484375 54.6875 
L 17.484375 21.921875 
Q 17.484375 14.15625 20.5 10.265625 
Q 23.53125 6.390625 29.59375 6.390625 
Q 36.859375 6.390625 41.078125 11.03125 
Q 45.3125 15.671875 45.3125 23.6875 
L 45.3125 54.6875 
L 54.296875 54.6875 
L 54.296875 0 
L 45.3125 0 
L 45.3125 8.40625 
Q 42.046875 3.421875 37.71875 1 
Q 33.40625 -1.421875 27.6875 -1.421875 
Q 18.265625 -1.421875 13.375 4.4375 
Q 8.5 10.296875 8.5 21.578125 
z
M 31.109375 56 
z
" id="DejaVuSans-117"/>
      <path d="M 2.984375 54.6875 
L 12.5 54.6875 
L 29.59375 8.796875 
L 46.6875 54.6875 
L 56.203125 54.6875 
L 35.6875 0 
L 23.484375 0 
z
" id="DejaVuSans-118"/>
      <path d="M 54.890625 54.6875 
L 35.109375 28.078125 
L 55.90625 0 
L 45.3125 0 
L 29.390625 21.484375 
L 13.484375 0 
L 2.875 0 
L 24.125 28.609375 
L 4.6875 54.6875 
L 15.28125 54.6875 
L 29.78125 35.203125 
L 44.28125 54.6875 
z
" id="DejaVuSans-120"/>
      <path d="M 52 44.1875 
Q 55.375 50.25 60.0625 53.125 
Q 64.75 56 71.09375 56 
Q 79.640625 56 84.28125 50.015625 
Q 88.921875 44.046875 88.921875 33.015625 
L 88.921875 0 
L 79.890625 0 
L 79.890625 32.71875 
Q 79.890625 40.578125 77.09375 44.375 
Q 74.3125 48.1875 68.609375 48.1875 
Q 61.625 48.1875 57.5625 43.546875 
Q 53.515625 38.921875 53.515625 30.90625 
L 53.515625 0 
L 44.484375 0 
L 44.484375 32.71875 
Q 44.484375 40.625 41.703125 44.40625 
Q 38.921875 48.1875 33.109375 48.1875 
Q 26.21875 48.1875 22.15625 43.53125 
Q 18.109375 38.875 18.109375 30.90625 
L 18.109375 0 
L 9.078125 0 
L 9.078125 54.6875 
L 18.109375 54.6875 
L 18.109375 46.1875 
Q 21.1875 51.21875 25.484375 53.609375 
Q 29.78125 56 35.6875 56 
Q 41.65625 56 45.828125 52.96875 
Q 50 49.953125 52 44.1875 
z
" id="DejaVuSans-109"/>
      <path d="M 18.109375 8.203125 
L 18.109375 -20.796875 
L 9.078125 -20.796875 
L 9.078125 54.6875 
L 18.109375 54.6875 
L 18.109375 46.390625 
Q 20.953125 51.265625 25.265625 53.625 
Q 29.59375 56 35.59375 56 
Q 45.5625 56 51.78125 48.09375 
Q 58.015625 40.1875 58.015625 27.296875 
Q 58.015625 14.40625 51.78125 6.484375 
Q 45.5625 -1.421875 35.59375 -1.421875 
Q 29.59375 -1.421875 25.265625 0.953125 
Q 20.953125 3.328125 18.109375 8.203125 
z
M 48.6875 27.296875 
Q 48.6875 37.203125 44.609375 42.84375 
Q 40.53125 48.484375 33.40625 48.484375 
Q 26.265625 48.484375 22.1875 42.84375 
Q 18.109375 37.203125 18.109375 27.296875 
Q 18.109375 17.390625 22.1875 11.75 
Q 26.265625 6.109375 33.40625 6.109375 
Q 40.53125 6.109375 44.609375 11.75 
Q 48.6875 17.390625 48.6875 27.296875 
z
" id="DejaVuSans-112"/>
     </defs>
     <use xlink:href="#DejaVuSans-80"/>
     <use x="60.302734" xlink:href="#DejaVuSans-82"/>
     <use x="129.785156" xlink:href="#DejaVuSans-32"/>
     <use x="161.572266" xlink:href="#DejaVuSans-99"/>
     <use x="216.552734" xlink:href="#DejaVuSans-117"/>
     <use x="279.931641" xlink:href="#DejaVuSans-114"/>
     <use x="321.044922" xlink:href="#DejaVuSans-118"/>
     <use x="380.224609" xlink:href="#DejaVuSans-101"/>
     <use x="441.748047" xlink:href="#DejaVuSans-32"/>
     <use x="473.535156" xlink:href="#DejaVuSans-101"/>
     <use x="533.308594" xlink:href="#DejaVuSans-120"/>
     <use x="592.488281" xlink:href="#DejaVuSans-97"/>
     <use x="653.767578" xlink:href="#DejaVuSans-109"/>
     <use x="751.179688" xlink:href="#DejaVuSans-112"/>
     <use x="814.65625" xlink:href="#DejaVuSans-108"/>
     <use x="842.439453" xlink:href="#DejaVuSans-101"/>
    </g>
   </g>
   <g id="legend_1">
    <g id="patch_7">
     <path d="M 214.754375 108.1845 
L 407.72 108.1845 
Q 409.72 108.1845 409.72 106.1845 
L 409.72 48.472 
Q 409.72 46.472 407.72 46.472 
L 214.754375 46.472 
Q 212.754375 46.472 212.754375 48.472 
L 212.754375 106.1845 
Q 212.754375 108.1845 214.754375 108.1845 
z
" style="fill:#ffffff;opacity:0.8;stroke:#cccccc;stroke-linejoin:miter;"/>
    </g>
    <g id="line2d_18">
     <path d="M 216.754375 54.570438 
L 236.754375 54.570438 
" style="fill:none;stroke:#ff0000;stroke-linecap:square;stroke-width:2;"/>
    </g>
    <g id="line2d_19"/>
    <g id="text_16">
     <!-- iedb (area = 0.13) -->
     <g transform="translate(244.754375 58.070438)scale(0.1 -0.1)">
      <defs>
       <path d="M 45.40625 46.390625 
L 45.40625 75.984375 
L 54.390625 75.984375 
L 54.390625 0 
L 45.40625 0 
L 45.40625 8.203125 
Q 42.578125 3.328125 38.25 0.953125 
Q 33.9375 -1.421875 27.875 -1.421875 
Q 17.96875 -1.421875 11.734375 6.484375 
Q 5.515625 14.40625 5.515625 27.296875 
Q 5.515625 40.1875 11.734375 48.09375 
Q 17.96875 56 27.875 56 
Q 33.9375 56 38.25 53.625 
Q 42.578125 51.265625 45.40625 46.390625 
z
M 14.796875 27.296875 
Q 14.796875 17.390625 18.875 11.75 
Q 22.953125 6.109375 30.078125 6.109375 
Q 37.203125 6.109375 41.296875 11.75 
Q 45.40625 17.390625 45.40625 27.296875 
Q 45.40625 37.203125 41.296875 42.84375 
Q 37.203125 48.484375 30.078125 48.484375 
Q 22.953125 48.484375 18.875 42.84375 
Q 14.796875 37.203125 14.796875 27.296875 
z
" id="DejaVuSans-100"/>
       <path d="M 48.6875 27.296875 
Q 48.6875 37.203125 44.609375 42.84375 
Q 40.53125 48.484375 33.40625 48.484375 
Q 26.265625 48.484375 22.1875 42.84375 
Q 18.109375 37.203125 18.109375 27.296875 
Q 18.109375 17.390625 22.1875 11.75 
Q 26.265625 6.109375 33.40625 6.109375 
Q 40.53125 6.109375 44.609375 11.75 
Q 48.6875 17.390625 48.6875 27.296875 
z
M 18.109375 46.390625 
Q 20.953125 51.265625 25.265625 53.625 
Q 29.59375 56 35.59375 56 
Q 45.5625 56 51.78125 48.09375 
Q 58.015625 40.1875 58.015625 27.296875 
Q 58.015625 14.40625 51.78125 6.484375 
Q 45.5625 -1.421875 35.59375 -1.421875 
Q 29.59375 -1.421875 25.265625 0.953125 
Q 20.953125 3.328125 18.109375 8.203125 
L 18.109375 0 
L 9.078125 0 
L 9.078125 75.984375 
L 18.109375 75.984375 
z
" id="DejaVuSans-98"/>
       <path d="M 31 75.875 
Q 24.46875 64.65625 21.28125 53.65625 
Q 18.109375 42.671875 18.109375 31.390625 
Q 18.109375 20.125 21.3125 9.0625 
Q 24.515625 -2 31 -13.1875 
L 23.1875 -13.1875 
Q 15.875 -1.703125 12.234375 9.375 
Q 8.59375 20.453125 8.59375 31.390625 
Q 8.59375 42.28125 12.203125 53.3125 
Q 15.828125 64.359375 23.1875 75.875 
z
" id="DejaVuSans-40"/>
       <path d="M 10.59375 45.40625 
L 73.1875 45.40625 
L 73.1875 37.203125 
L 10.59375 37.203125 
z
M 10.59375 25.484375 
L 73.1875 25.484375 
L 73.1875 17.1875 
L 10.59375 17.1875 
z
" id="DejaVuSans-61"/>
       <path d="M 40.578125 39.3125 
Q 47.65625 37.796875 51.625 33 
Q 55.609375 28.21875 55.609375 21.1875 
Q 55.609375 10.40625 48.1875 4.484375 
Q 40.765625 -1.421875 27.09375 -1.421875 
Q 22.515625 -1.421875 17.65625 -0.515625 
Q 12.796875 0.390625 7.625 2.203125 
L 7.625 11.71875 
Q 11.71875 9.328125 16.59375 8.109375 
Q 21.484375 6.890625 26.8125 6.890625 
Q 36.078125 6.890625 40.9375 10.546875 
Q 45.796875 14.203125 45.796875 21.1875 
Q 45.796875 27.640625 41.28125 31.265625 
Q 36.765625 34.90625 28.71875 34.90625 
L 20.21875 34.90625 
L 20.21875 43.015625 
L 29.109375 43.015625 
Q 36.375 43.015625 40.234375 45.921875 
Q 44.09375 48.828125 44.09375 54.296875 
Q 44.09375 59.90625 40.109375 62.90625 
Q 36.140625 65.921875 28.71875 65.921875 
Q 24.65625 65.921875 20.015625 65.03125 
Q 15.375 64.15625 9.8125 62.3125 
L 9.8125 71.09375 
Q 15.4375 72.65625 20.34375 73.4375 
Q 25.25 74.21875 29.59375 74.21875 
Q 40.828125 74.21875 47.359375 69.109375 
Q 53.90625 64.015625 53.90625 55.328125 
Q 53.90625 49.265625 50.4375 45.09375 
Q 46.96875 40.921875 40.578125 39.3125 
z
" id="DejaVuSans-51"/>
       <path d="M 8.015625 75.875 
L 15.828125 75.875 
Q 23.140625 64.359375 26.78125 53.3125 
Q 30.421875 42.28125 30.421875 31.390625 
Q 30.421875 20.453125 26.78125 9.375 
Q 23.140625 -1.703125 15.828125 -13.1875 
L 8.015625 -13.1875 
Q 14.5 -2 17.703125 9.0625 
Q 20.90625 20.125 20.90625 31.390625 
Q 20.90625 42.671875 17.703125 53.65625 
Q 14.5 64.65625 8.015625 75.875 
z
" id="DejaVuSans-41"/>
      </defs>
      <use xlink:href="#DejaVuSans-105"/>
      <use x="27.783203" xlink:href="#DejaVuSans-101"/>
      <use x="89.306641" xlink:href="#DejaVuSans-100"/>
      <use x="152.783203" xlink:href="#DejaVuSans-98"/>
      <use x="216.259766" xlink:href="#DejaVuSans-32"/>
      <use x="248.046875" xlink:href="#DejaVuSans-40"/>
      <use x="287.060547" xlink:href="#DejaVuSans-97"/>
      <use x="348.339844" xlink:href="#DejaVuSans-114"/>
      <use x="387.203125" xlink:href="#DejaVuSans-101"/>
      <use x="448.726562" xlink:href="#DejaVuSans-97"/>
      <use x="510.005859" xlink:href="#DejaVuSans-32"/>
      <use x="541.792969" xlink:href="#DejaVuSans-61"/>
      <use x="625.582031" xlink:href="#DejaVuSans-32"/>
      <use x="657.369141" xlink:href="#DejaVuSans-48"/>
      <use x="720.992188" xlink:href="#DejaVuSans-46"/>
      <use x="752.779297" xlink:href="#DejaVuSans-49"/>
      <use x="816.402344" xlink:href="#DejaVuSans-51"/>
      <use x="880.025391" xlink:href="#DejaVuSans-41"/>
     </g>
    </g>
    <g id="line2d_20">
     <path d="M 216.754375 69.248563 
L 236.754375 69.248563 
" style="fill:none;stroke:#008000;stroke-linecap:square;stroke-width:2;"/>
    </g>
    <g id="line2d_21"/>
    <g id="text_17">
     <!-- logistic regression (area = 0.18) -->
     <g transform="translate(244.754375 72.748563)scale(0.1 -0.1)">
      <defs>
       <path d="M 45.40625 27.984375 
Q 45.40625 37.75 41.375 43.109375 
Q 37.359375 48.484375 30.078125 48.484375 
Q 22.859375 48.484375 18.828125 43.109375 
Q 14.796875 37.75 14.796875 27.984375 
Q 14.796875 18.265625 18.828125 12.890625 
Q 22.859375 7.515625 30.078125 7.515625 
Q 37.359375 7.515625 41.375 12.890625 
Q 45.40625 18.265625 45.40625 27.984375 
z
M 54.390625 6.78125 
Q 54.390625 -7.171875 48.1875 -13.984375 
Q 42 -20.796875 29.203125 -20.796875 
Q 24.46875 -20.796875 20.265625 -20.09375 
Q 16.0625 -19.390625 12.109375 -17.921875 
L 12.109375 -9.1875 
Q 16.0625 -11.328125 19.921875 -12.34375 
Q 23.78125 -13.375 27.78125 -13.375 
Q 36.625 -13.375 41.015625 -8.765625 
Q 45.40625 -4.15625 45.40625 5.171875 
L 45.40625 9.625 
Q 42.625 4.78125 38.28125 2.390625 
Q 33.9375 0 27.875 0 
Q 17.828125 0 11.671875 7.65625 
Q 5.515625 15.328125 5.515625 27.984375 
Q 5.515625 40.671875 11.671875 48.328125 
Q 17.828125 56 27.875 56 
Q 33.9375 56 38.28125 53.609375 
Q 42.625 51.21875 45.40625 46.390625 
L 45.40625 54.6875 
L 54.390625 54.6875 
z
" id="DejaVuSans-103"/>
       <path d="M 18.3125 70.21875 
L 18.3125 54.6875 
L 36.8125 54.6875 
L 36.8125 47.703125 
L 18.3125 47.703125 
L 18.3125 18.015625 
Q 18.3125 11.328125 20.140625 9.421875 
Q 21.96875 7.515625 27.59375 7.515625 
L 36.8125 7.515625 
L 36.8125 0 
L 27.59375 0 
Q 17.1875 0 13.234375 3.875 
Q 9.28125 7.765625 9.28125 18.015625 
L 9.28125 47.703125 
L 2.6875 47.703125 
L 2.6875 54.6875 
L 9.28125 54.6875 
L 9.28125 70.21875 
z
" id="DejaVuSans-116"/>
      </defs>
      <use xlink:href="#DejaVuSans-108"/>
      <use x="27.783203" xlink:href="#DejaVuSans-111"/>
      <use x="88.964844" xlink:href="#DejaVuSans-103"/>
      <use x="152.441406" xlink:href="#DejaVuSans-105"/>
      <use x="180.224609" xlink:href="#DejaVuSans-115"/>
      <use x="232.324219" xlink:href="#DejaVuSans-116"/>
      <use x="271.533203" xlink:href="#DejaVuSans-105"/>
      <use x="299.316406" xlink:href="#DejaVuSans-99"/>
      <use x="354.296875" xlink:href="#DejaVuSans-32"/>
      <use x="386.083984" xlink:href="#DejaVuSans-114"/>
      <use x="424.947266" xlink:href="#DejaVuSans-101"/>
      <use x="486.470703" xlink:href="#DejaVuSans-103"/>
      <use x="549.947266" xlink:href="#DejaVuSans-114"/>
      <use x="588.810547" xlink:href="#DejaVuSans-101"/>
      <use x="650.333984" xlink:href="#DejaVuSans-115"/>
      <use x="702.433594" xlink:href="#DejaVuSans-115"/>
      <use x="754.533203" xlink:href="#DejaVuSans-105"/>
      <use x="782.316406" xlink:href="#DejaVuSans-111"/>
      <use x="843.498047" xlink:href="#DejaVuSans-110"/>
      <use x="906.876953" xlink:href="#DejaVuSans-32"/>
      <use x="938.664062" xlink:href="#DejaVuSans-40"/>
      <use x="977.677734" xlink:href="#DejaVuSans-97"/>
      <use x="1038.957031" xlink:href="#DejaVuSans-114"/>
      <use x="1077.820312" xlink:href="#DejaVuSans-101"/>
      <use x="1139.34375" xlink:href="#DejaVuSans-97"/>
      <use x="1200.623047" xlink:href="#DejaVuSans-32"/>
      <use x="1232.410156" xlink:href="#DejaVuSans-61"/>
      <use x="1316.199219" xlink:href="#DejaVuSans-32"/>
      <use x="1347.986328" xlink:href="#DejaVuSans-48"/>
      <use x="1411.609375" xlink:href="#DejaVuSans-46"/>
      <use x="1443.396484" xlink:href="#DejaVuSans-49"/>
      <use x="1507.019531" xlink:href="#DejaVuSans-56"/>
      <use x="1570.642578" xlink:href="#DejaVuSans-41"/>
     </g>
    </g>
    <g id="line2d_22">
     <path d="M 216.754375 83.926688 
L 236.754375 83.926688 
" style="fill:none;stroke:#0000ff;stroke-linecap:square;stroke-width:2;"/>
    </g>
    <g id="line2d_23"/>
    <g id="text_18">
     <!-- deephlapan (area = 0.25) -->
     <g transform="translate(244.754375 87.426688)scale(0.1 -0.1)">
      <defs>
       <path d="M 54.890625 33.015625 
L 54.890625 0 
L 45.90625 0 
L 45.90625 32.71875 
Q 45.90625 40.484375 42.875 44.328125 
Q 39.84375 48.1875 33.796875 48.1875 
Q 26.515625 48.1875 22.3125 43.546875 
Q 18.109375 38.921875 18.109375 30.90625 
L 18.109375 0 
L 9.078125 0 
L 9.078125 75.984375 
L 18.109375 75.984375 
L 18.109375 46.1875 
Q 21.34375 51.125 25.703125 53.5625 
Q 30.078125 56 35.796875 56 
Q 45.21875 56 50.046875 50.171875 
Q 54.890625 44.34375 54.890625 33.015625 
z
" id="DejaVuSans-104"/>
       <path d="M 10.796875 72.90625 
L 49.515625 72.90625 
L 49.515625 64.59375 
L 19.828125 64.59375 
L 19.828125 46.734375 
Q 21.96875 47.46875 24.109375 47.828125 
Q 26.265625 48.1875 28.421875 48.1875 
Q 40.625 48.1875 47.75 41.5 
Q 54.890625 34.8125 54.890625 23.390625 
Q 54.890625 11.625 47.5625 5.09375 
Q 40.234375 -1.421875 26.90625 -1.421875 
Q 22.3125 -1.421875 17.546875 -0.640625 
Q 12.796875 0.140625 7.71875 1.703125 
L 7.71875 11.625 
Q 12.109375 9.234375 16.796875 8.0625 
Q 21.484375 6.890625 26.703125 6.890625 
Q 35.15625 6.890625 40.078125 11.328125 
Q 45.015625 15.765625 45.015625 23.390625 
Q 45.015625 31 40.078125 35.4375 
Q 35.15625 39.890625 26.703125 39.890625 
Q 22.75 39.890625 18.8125 39.015625 
Q 14.890625 38.140625 10.796875 36.28125 
z
" id="DejaVuSans-53"/>
      </defs>
      <use xlink:href="#DejaVuSans-100"/>
      <use x="63.476562" xlink:href="#DejaVuSans-101"/>
      <use x="125" xlink:href="#DejaVuSans-101"/>
      <use x="186.523438" xlink:href="#DejaVuSans-112"/>
      <use x="250" xlink:href="#DejaVuSans-104"/>
      <use x="313.378906" xlink:href="#DejaVuSans-108"/>
      <use x="341.162109" xlink:href="#DejaVuSans-97"/>
      <use x="402.441406" xlink:href="#DejaVuSans-112"/>
      <use x="465.917969" xlink:href="#DejaVuSans-97"/>
      <use x="527.197266" xlink:href="#DejaVuSans-110"/>
      <use x="590.576172" xlink:href="#DejaVuSans-32"/>
      <use x="622.363281" xlink:href="#DejaVuSans-40"/>
      <use x="661.376953" xlink:href="#DejaVuSans-97"/>
      <use x="722.65625" xlink:href="#DejaVuSans-114"/>
      <use x="761.519531" xlink:href="#DejaVuSans-101"/>
      <use x="823.042969" xlink:href="#DejaVuSans-97"/>
      <use x="884.322266" xlink:href="#DejaVuSans-32"/>
      <use x="916.109375" xlink:href="#DejaVuSans-61"/>
      <use x="999.898438" xlink:href="#DejaVuSans-32"/>
      <use x="1031.685547" xlink:href="#DejaVuSans-48"/>
      <use x="1095.308594" xlink:href="#DejaVuSans-46"/>
      <use x="1127.095703" xlink:href="#DejaVuSans-50"/>
      <use x="1190.71875" xlink:href="#DejaVuSans-53"/>
      <use x="1254.341797" xlink:href="#DejaVuSans-41"/>
     </g>
    </g>
    <g id="line2d_24">
     <path d="M 216.754375 98.604813 
L 236.754375 98.604813 
" style="fill:none;stroke:#ffa500;stroke-linecap:square;stroke-width:2;"/>
    </g>
    <g id="line2d_25"/>
    <g id="text_19">
     <!-- deepimmuno (area = 0.27) -->
     <g transform="translate(244.754375 102.104813)scale(0.1 -0.1)">
      <defs>
       <path d="M 8.203125 72.90625 
L 55.078125 72.90625 
L 55.078125 68.703125 
L 28.609375 0 
L 18.3125 0 
L 43.21875 64.59375 
L 8.203125 64.59375 
z
" id="DejaVuSans-55"/>
      </defs>
      <use xlink:href="#DejaVuSans-100"/>
      <use x="63.476562" xlink:href="#DejaVuSans-101"/>
      <use x="125" xlink:href="#DejaVuSans-101"/>
      <use x="186.523438" xlink:href="#DejaVuSans-112"/>
      <use x="250" xlink:href="#DejaVuSans-105"/>
      <use x="277.783203" xlink:href="#DejaVuSans-109"/>
      <use x="375.195312" xlink:href="#DejaVuSans-109"/>
      <use x="472.607422" xlink:href="#DejaVuSans-117"/>
      <use x="535.986328" xlink:href="#DejaVuSans-110"/>
      <use x="599.365234" xlink:href="#DejaVuSans-111"/>
      <use x="660.546875" xlink:href="#DejaVuSans-32"/>
      <use x="692.333984" xlink:href="#DejaVuSans-40"/>
      <use x="731.347656" xlink:href="#DejaVuSans-97"/>
      <use x="792.626953" xlink:href="#DejaVuSans-114"/>
      <use x="831.490234" xlink:href="#DejaVuSans-101"/>
      <use x="893.013672" xlink:href="#DejaVuSans-97"/>
      <use x="954.292969" xlink:href="#DejaVuSans-32"/>
      <use x="986.080078" xlink:href="#DejaVuSans-61"/>
      <use x="1069.869141" xlink:href="#DejaVuSans-32"/>
      <use x="1101.65625" xlink:href="#DejaVuSans-48"/>
      <use x="1165.279297" xlink:href="#DejaVuSans-46"/>
      <use x="1197.066406" xlink:href="#DejaVuSans-50"/>
      <use x="1260.689453" xlink:href="#DejaVuSans-55"/>
      <use x="1324.3125" xlink:href="#DejaVuSans-41"/>
     </g>
    </g>
   </g>
  </g>
 </g>
 <defs>
  <clipPath id="p9dcf073d0b">
   <rect height="266.112" width="357.12" x="57.6" y="41.472"/>
  </clipPath>
 </defs>
</svg>
